<svg width="114" height="115" viewBox="0 0 114 115" fill="none" xmlns="http://www.w3.org/2000/svg">
<g filter="url(#filter0_i_106_336)">
<path d="M0.5 114.5V0.5H113.5V114.5H0.5Z" stroke="#0A1232"/>
<path d="M101 26.5001V40H13V26.5001C13 19.005 19.5643 13 27.6507 13H86.3016C94.4357 13 101 19.0488 101 26.5001Z" fill="white"/>
<path d="M100.938 42.741V87.0639C100.938 95.2576 94.3829 101.822 86.3079 101.822H27.7403C19.6178 101.822 13.1104 95.2097 13.1104 87.0639V42.741H100.938Z" fill="white"/>
<path d="M31.0848 27.9351C31.0848 29.8447 29.5537 31.3703 27.6923 31.3703C25.8309 31.3703 24.2998 29.8447 24.2998 27.9351C24.2998 26.0253 25.8311 24.4995 27.6923 24.4995C29.5535 24.4995 31.0848 26.0253 31.0848 27.9351Z" fill="white" stroke="#0A1232" stroke-width="3"/>
<path d="M42.466 61.5254L32.7285 71.3482" stroke="#0A1232" stroke-width="3" stroke-linecap="round" stroke-linejoin="round"/>
<path d="M42.466 81.2185L32.7285 71.3477" stroke="#0A1232" stroke-width="3" stroke-linecap="round" stroke-linejoin="round"/>
<path d="M71.8203 61.5254L81.5579 71.3482" stroke="#0A1232" stroke-width="3" stroke-linecap="round" stroke-linejoin="round"/>
<path d="M71.8203 81.2185L81.5579 71.3477" stroke="#0A1232" stroke-width="3" stroke-linecap="round" stroke-linejoin="round"/>
<path d="M60.2304 56.302L53.7705 85.8665" stroke="#0A1232" stroke-width="3" stroke-linecap="round" stroke-linejoin="round"/>
</g>
<defs>
<filter id="filter0_i_106_336" x="0" y="0" width="114" height="119" filterUnits="userSpaceOnUse" color-interpolation-filters="sRGB">
<feFlood flood-opacity="0" result="BackgroundImageFix"/>
<feBlend mode="normal" in="SourceGraphic" in2="BackgroundImageFix" result="shape"/>
<feColorMatrix in="SourceAlpha" type="matrix" values="0 0 0 0 0 0 0 0 0 0 0 0 0 0 0 0 0 0 127 0" result="hardAlpha"/>
<feOffset dy="4"/>
<feGaussianBlur stdDeviation="2"/>
<feComposite in2="hardAlpha" operator="arithmetic" k2="-1" k3="1"/>
<feColorMatrix type="matrix" values="0 0 0 0 0 0 0 0 0 0 0 0 0 0 0 0 0 0 0.25 0"/>
<feBlend mode="normal" in2="shape" result="effect1_innerShadow_106_336"/>
</filter>
</defs>
</svg>
