<?xml version="1.0" standalone="no"?>
<!DOCTYPE svg PUBLIC "-//W3C//DTD SVG 20010904//EN"
 "http://www.w3.org/TR/2001/REC-SVG-20010904/DTD/svg10.dtd">
<svg version="1.0" xmlns="http://www.w3.org/2000/svg"
 width="820.000000pt" height="1280.000000pt" viewBox="0 0 820.000000 1280.000000"
 preserveAspectRatio="xMidYMid meet">
<g transform="translate(0.000000,1280.000000) scale(0.100000,-0.100000)"
fill="#000000" stroke="none">
<path d="M3950 12797 c-3 -3 -68 -10 -145 -16 -280 -23 -494 -58 -749 -123
-1563 -397 -2743 -1648 -2995 -3173 -36 -222 -65 -539 -58 -656 30 -550 216
-1067 655 -1819 46 -80 180 -302 297 -495 469 -771 649 -1125 760 -1491 62
-206 84 -337 95 -574 6 -118 15 -251 21 -295 38 -293 173 -555 413 -803 l61
-63 5 -193 c6 -231 -1 -216 151 -297 125 -65 169 -111 169 -174 0 -63 -38
-102 -167 -172 -125 -69 -153 -97 -153 -158 0 -55 34 -92 134 -142 142 -71
186 -115 186 -183 0 -68 -41 -108 -188 -185 -92 -48 -132 -92 -132 -145 0 -56
33 -89 155 -155 139 -77 160 -100 160 -173 0 -74 -18 -99 -118 -170 -123 -86
-145 -146 -88 -233 16 -24 134 -145 262 -269 128 -124 266 -265 308 -315 80
-96 178 -240 200 -293 l13 -32 897 0 896 0 14 31 c24 54 125 202 202 294 42
50 180 191 308 315 128 124 246 245 262 269 58 87 35 147 -89 234 -100 70
-126 109 -120 178 7 66 33 92 163 164 122 66 155 99 155 155 0 53 -40 97 -132
145 -147 77 -188 117 -188 185 0 68 44 112 185 183 98 49 135 88 135 143 0 60
-29 90 -150 155 -128 68 -170 111 -170 174 0 64 44 109 169 174 152 81 145 66
151 297 l5 193 61 63 c215 222 348 461 397 713 23 115 26 156 37 386 23 535
189 961 713 1829 377 625 490 815 577 975 276 503 435 928 485 1293 9 64 20
144 25 178 13 77 13 215 1 324 -6 47 -15 137 -21 200 -62 636 -304 1279 -679
1809 -649 915 -1653 1521 -2800 1691 -203 30 -725 63 -741 47z m505 -577
c1188 -108 2207 -688 2812 -1600 286 -431 450 -885 515 -1420 16 -138 16 -492
0 -595 -54 -331 -160 -639 -362 -1050 -109 -221 -175 -342 -490 -895 -375
-660 -505 -912 -629 -1223 -149 -372 -206 -624 -221 -978 -6 -119 -17 -256
-25 -305 -20 -113 -72 -266 -116 -340 -40 -68 -141 -179 -180 -200 -42 -21
-3276 -21 -3318 0 -39 21 -140 132 -180 200 -44 74 -96 227 -116 340 -8 49
-19 186 -25 305 -13 296 -49 488 -143 766 -134 392 -270 667 -730 1475 -304
534 -448 803 -550 1030 -287 634 -351 1062 -251 1660 165 982 783 1832 1710
2351 464 260 1007 425 1569 478 130 12 601 13 730 1z"/>
<path d="M2386 9832 c-4 -7 -120 -466 -140 -555 -7 -32 12 -8 103 128 50 73
96 137 102 141 6 3 15 1 19 -7 5 -7 61 -161 126 -341 l117 -329 76 3 76 3 115
320 c141 392 128 361 141 348 6 -6 64 -159 128 -340 l118 -328 75 -3 c65 -2
77 0 83 15 3 10 56 158 117 328 61 171 115 316 121 323 6 7 14 9 18 5 4 -4 57
-150 119 -323 62 -173 116 -323 121 -332 8 -15 23 -18 79 -18 56 0 71 3 79 18
5 9 59 159 121 332 62 173 115 319 119 323 4 4 12 2 18 -5 6 -7 60 -152 121
-323 61 -170 114 -318 117 -328 6 -15 18 -17 83 -15 l75 3 118 328 c64 181
122 334 128 340 13 13 0 44 141 -348 l115 -320 76 -3 76 -3 117 329 c65 180
121 334 126 341 4 8 13 10 19 7 6 -4 52 -68 102 -141 50 -74 94 -137 99 -140
10 -6 -3 50 -78 345 l-57 225 -73 3 -73 3 -13 -33 c-8 -18 -62 -168 -121 -333
-103 -289 -118 -325 -130 -313 -4 3 -58 151 -122 329 -63 178 -120 330 -126
337 -7 9 -32 12 -80 10 l-70 -3 -117 -328 c-64 -180 -121 -332 -128 -339 -15
-15 -11 -22 -145 352 l-112 315 -69 3 c-38 2 -74 -2 -79 -7 -6 -6 -63 -158
-128 -338 -69 -195 -122 -328 -129 -328 -7 0 -60 133 -129 328 -65 180 -122
332 -128 338 -5 5 -41 9 -79 7 l-69 -3 -112 -315 c-134 -374 -130 -367 -145
-352 -7 7 -64 159 -128 339 l-117 328 -70 3 c-48 2 -73 -1 -80 -10 -6 -7 -63
-159 -126 -337 -64 -178 -118 -326 -122 -329 -12 -12 -27 24 -130 313 -147
412 -121 365 -204 365 -38 0 -72 -4 -75 -8z"/>
<path d="M1898 9230 c-43 -22 -78 -43 -78 -47 0 -3 293 -630 652 -1392 546
-1162 652 -1394 655 -1436 2 -27 19 -552 38 -1165 20 -613 38 -1143 41 -1177
l6 -63 170 0 171 0 -6 83 c-4 45 -29 622 -57 1282 -28 660 -53 1214 -56 1230
-7 42 -1428 2720 -1445 2722 -8 1 -49 -16 -91 -37z"/>
<path d="M6167 9208 c-19 -35 -342 -643 -718 -1353 -632 -1194 -683 -1294
-686 -1345 -2 -30 -22 -471 -43 -980 -22 -509 -45 -1026 -50 -1150 -5 -124
-12 -271 -16 -328 l-6 -102 170 0 170 0 6 63 c3 34 21 564 41 1177 19 613 36
1138 38 1165 3 42 109 274 655 1436 359 762 652 1389 652 1392 0 8 -155 87
-169 87 -5 0 -25 -28 -44 -62z"/>
</g>
</svg>
