<svg width="7000" height="7000" viewBox="0 0 7000 7000" fill="none" xmlns="http://www.w3.org/2000/svg">
<g clip-path="url(#clip0_1_2)">
<path d="M5571.95 5503.93C5566.1 5506.99 5559.7 5509.31 5554.49 5513.22C5509.15 5547.28 5458.62 5570.64 5404.58 5586.93C5401.4 5587.89 5398.1 5588.61 5395.09 5589.95C5391.1 5591.74 5388.74 5595.19 5389.43 5599.55C5390.48 5606.11 5392.04 5612.61 5393.69 5619.06C5407.21 5672 5420.82 5724.92 5434.37 5777.85C5436.02 5784.31 5437.81 5790.75 5438.98 5797.3C5444.8 5829.77 5426.18 5863.56 5391.23 5872.12C5374.4 5876.23 5357.66 5880.7 5340.79 5884.67C5313.01 5891.2 5284.86 5879.13 5271.36 5854.01C5266.37 5844.74 5262.93 5834.39 5260.28 5824.15C5247.95 5776.4 5236.21 5728.5 5224.11 5680.69C5218.71 5659.38 5212.63 5638.23 5207.51 5616.86C5204.86 5605.8 5198.98 5600.01 5187.66 5597.65C5162.91 5592.47 5138.16 5586.97 5113.82 5580.15C5075.16 5569.33 5038.68 5552.93 5003.85 5533.04C4977.79 5518.15 4952.17 5502.28 4929.88 5482.13C4910.7 5464.8 4890.56 5448.66 4873.41 5428.74C4854.19 5406.42 4836.61 5383.2 4820.44 5358.73C4793.35 5317.71 4774.26 5273.14 4762.69 5225.49C4756.41 5199.63 4753.33 5173.28 4751.21 5146.59C4748.99 5118.64 4749.21 5090.71 4747.47 5062.83C4745.57 5032.32 4743.1 5001.8 4739.58 4971.43C4734.59 4928.48 4729.02 4885.58 4722.55 4842.83C4717.27 4807.96 4711 4773.2 4703.89 4738.66C4697.72 4708.67 4690.07 4678.96 4682.51 4649.28C4674.44 4617.56 4667.35 4585.59 4668.26 4552.75C4670.19 4483.03 4690.12 4418.97 4732.02 4362.58C4762.74 4321.23 4801.16 4288.92 4847.56 4266.23C4854.63 4262.77 4862.34 4260.19 4868.58 4254.08C4865.33 4244.25 4857.11 4239.12 4850.41 4233.11C4834.09 4218.43 4817.26 4204.31 4800.48 4190.15C4774.54 4168.26 4748.8 4146.1 4722.34 4124.85C4695.35 4103.17 4667.58 4082.45 4640.14 4061.32C4637.51 4059.29 4635.02 4056.82 4632.04 4055.55C4629.93 4054.66 4626.42 4054.53 4624.77 4055.75C4623.11 4056.97 4621.89 4060.54 4622.4 4062.61C4623.49 4067.07 4625.79 4071.24 4627.63 4075.52C4638.44 4100.75 4644.94 4126.85 4648.9 4154.22C4654.6 4193.68 4647 4231.1 4637.45 4268.52C4628.39 4304.02 4617.98 4339.18 4608.31 4374.53C4588.8 4445.86 4569.33 4517.21 4549.95 4588.58C4539.65 4626.52 4529.68 4664.55 4519.36 4702.48C4500.48 4771.92 4481.34 4841.29 4462.52 4910.74C4450.5 4955.12 4439.12 4999.67 4423.71 5043.07C4404.67 5096.65 4380.54 5147.68 4349.8 5195.64C4331.08 5224.86 4311.62 5253.59 4288.89 5279.69C4264.02 5308.25 4239.23 5336.84 4209.87 5361.45C4183.81 5383.3 4158.03 5405.32 4129.84 5424.35C4114.4 5434.78 4098.48 5444.5 4082.75 5454.5C4081.06 5455.57 4079.2 5456.35 4077.45 5457.31C4050.69 5471.91 4050.88 5471.99 4039.2 5500.02C4026.05 5531.59 4007.97 5560.18 3987.07 5587.24C3958.94 5623.65 3924.28 5652.41 3885.37 5676.22C3846.91 5699.74 3805.22 5715.25 3760.87 5723.61C3746.44 5726.33 3732.03 5728.64 3717.25 5728.26C3711.97 5728.12 3706.66 5729.14 3701.37 5729.73C3697.41 5730.18 3693.34 5731.7 3689.53 5731.18C3657.94 5726.89 3625.78 5727.35 3594.66 5718.78C3561.67 5709.7 3530.15 5697.14 3500.7 5679.93C3458.95 5655.54 3422.38 5625.05 3392 5586.95C3368.87 5557.94 3351.5 5525.88 3337.17 5492.11C3332.1 5480.19 3325.06 5472.56 3313.74 5466.64C3266.94 5442.16 3224.15 5411.78 3183.43 5378.12C3153.51 5353.38 3126.08 5326.07 3100.37 5297.37C3065.7 5258.67 3035.46 5216.36 3009.4 5171.14C2992.39 5141.61 2977.53 5111.1 2964.27 5079.82C2949.43 5044.81 2937.63 5008.7 2928.03 4971.88C2905.18 4884.19 2882.27 4796.51 2859.25 4708.86C2840.8 4638.62 2822.15 4568.43 2803.61 4498.2C2784.72 4426.69 2765.82 4355.19 2747.02 4283.66C2742.45 4266.27 2737.38 4248.94 2734.15 4231.3C2731.16 4215 2728.86 4198.3 2728.93 4181.78C2729 4165.94 2732.62 4150.13 2734.38 4134.28C2734.78 4130.71 2733.93 4127 2733.59 4122.63C2730.31 4123.38 2728 4123.23 2726.72 4124.31C2714.5 4134.58 2702.33 4144.93 2690.38 4155.52C2667.97 4175.38 2645.71 4195.41 2623.41 4215.4C2619.94 4218.51 2616.51 4221.68 2613.21 4224.98C2567.48 4270.69 2521.77 4316.43 2476.06 4362.16C2469.03 4369.2 2462 4376.23 2458.74 4387.2C2461.98 4389.59 2464.92 4392.14 2468.2 4394.13C2495.57 4410.75 2522.58 4428.06 2546.51 4449.34C2571.9 4471.93 2595.42 4496.46 2615.93 4523.77C2665.31 4589.56 2696.78 4662.82 2708.4 4744.37C2710.27 4757.51 2710.25 4770.93 2712.33 4784.02C2715.71 4805.26 2713.78 4826.23 2712.86 4847.52C2711.67 4875.02 2706.91 4901.78 2702.58 4928.67C2694.02 4981.91 2685.17 5035.12 2675.34 5088.14C2666.09 5138 2653.34 5186.81 2631.9 5233.27C2611.35 5277.81 2585.59 5318.88 2553.57 5355.66C2516.63 5398.1 2473.98 5434.28 2425.27 5462.93C2424.12 5463.6 2422.98 5464.32 2421.78 5464.87C2407.5 5471.42 2405.16 5479.04 2415.51 5493.41C2430.7 5514.48 2446.33 5535.24 2461.98 5555.98C2486.85 5588.95 2512.02 5621.69 2536.83 5654.71C2557.6 5682.36 2549.11 5725.83 2519.55 5743.92C2515.03 5746.68 2510.11 5748.92 2505.15 5750.82C2484.81 5758.59 2465.41 5753.38 2451.39 5736.53C2449.27 5733.98 2447.54 5731.09 2445.53 5728.44C2408.54 5679.58 2371.54 5630.72 2334.5 5581.9C2332.09 5578.71 2329.47 5575.68 2326.84 5572.67C2317.48 5561.94 2310.67 5549.95 2307.86 5535.79C2306.58 5529.32 2305.39 5522.6 2299.78 5518.1C2285.71 5517.8 2247.05 5526.21 2233.31 5532.84C2234.37 5536.89 2234.9 5541.47 2236.72 5545.46C2246.72 5567.26 2256.89 5588.98 2267.28 5610.59C2288.35 5654.42 2309.57 5698.18 2330.8 5741.93C2337.01 5754.73 2341.02 5767.92 2339.94 5782.37C2338.01 5808.21 2325.1 5825.95 2301.01 5835.43C2278.52 5844.29 2257.91 5841.03 2239.42 5825.38C2230.64 5817.95 2224.18 5808.84 2219.2 5798.41C2200.86 5759.91 2182.21 5721.56 2163.69 5683.14C2145.46 5645.33 2127.11 5607.57 2109.13 5569.63C2105.15 5561.24 2101.59 5552.44 2099.4 5543.45C2095.76 5528.6 2086.17 5523.82 2068.76 5524.8C2064.34 5525.05 2061.49 5528.04 2061 5532.53C2060.71 5535.14 2060.94 5537.85 2061.26 5540.47C2066.28 5581.4 2071.28 5622.34 2076.47 5663.25C2078.39 5678.42 2080.44 5693.6 2083 5708.68C2088.32 5739.97 2072.39 5771.2 2047.77 5785.6C2007.54 5809.13 1952.76 5785.35 1943.93 5742.75C1940.29 5725.2 1938.43 5707.28 1936.09 5689.49C1932.45 5661.79 1929.07 5634.06 1925.64 5606.33C1922.38 5579.93 1919.29 5553.5 1915.95 5527.1C1913.78 5509.95 1911.39 5492.83 1908.89 5475.72C1906.46 5459.05 1894.56 5453.48 1880.68 5450.49C1878.92 5452.43 1877.42 5453.3 1877.28 5454.36C1875.46 5467.53 1873.6 5480.7 1872.22 5493.93C1870.71 5508.47 1869.51 5523.05 1868.47 5537.64C1866.81 5560.86 1865.55 5584.11 1863.81 5607.32C1863.27 5614.59 1861.71 5621.77 1860.66 5629C1856.75 5655.74 1828.1 5673.74 1801.25 5671.49C1788 5670.38 1774.77 5669.06 1761.55 5667.64C1727.18 5663.94 1704.9 5637.52 1709.99 5600.31C1710.44 5597.01 1711.33 5593.75 1711.55 5590.45C1713.14 5567.22 1714.31 5543.96 1716.21 5520.76C1718.1 5497.57 1720.71 5474.45 1722.93 5451.29C1723.44 5445.99 1723.54 5440.65 1724 5435.34C1724.9 5424.75 1725.97 5414.17 1726.89 5403.58C1727.35 5398.27 1727.53 5392.94 1727.98 5387.64C1728.89 5377.04 1729.97 5366.47 1730.83 5355.87C1731.36 5349.23 1731.69 5342.58 1731.98 5335.93C1732.27 5329.27 1731.22 5322.31 1732.83 5316.01C1735.94 5303.92 1732.29 5294.53 1725.95 5284.28C1702.35 5246.11 1684.27 5205.28 1672.64 5161.9C1666.62 5139.41 1661.39 5116.59 1657.79 5093.61C1652.53 5060.04 1649.77 5026.04 1652.51 4992.07C1656.6 4941.46 1665.78 4891.74 1683.54 4843.93C1687.94 4832.08 1692.91 4820.41 1698.08 4808.86C1707.04 4788.79 1716.45 4768.91 1725.52 4748.88C1741.44 4713.68 1757.11 4678.36 1773.12 4643.2C1795.27 4594.55 1820.39 4547.8 1854.97 4506.42C1926.85 4420.41 2017.9 4366.45 2126.67 4341.62C2138.97 4338.82 2151.66 4337.8 2164.16 4335.86C2169.41 4335.04 2174.61 4333.78 2179.88 4333.08C2189.11 4331.87 2195.45 4326.52 2201.41 4319.8C2223.05 4295.41 2245.14 4271.41 2266.8 4247.04C2322.65 4184.22 2383.58 4126.39 2443.21 4067.3C2466.82 4043.91 2492.38 4022.48 2517.12 4000.23C2529.99 3988.66 2542.87 3977.1 2556.01 3965.84C2576.73 3948.08 2597.45 3930.3 2618.65 3913.12C2626.47 3906.77 2630.56 3899.45 2631.97 3889.63C2637.11 3853.89 2652.13 3822.23 2673.07 3793.17C2678.13 3786.15 2683.64 3779.45 2688.75 3772.45C2691.88 3768.16 2691.56 3763.55 2688.3 3759.52C2684.96 3755.39 2681.34 3751.43 2677.51 3747.74C2661.46 3732.29 2650.16 3713.53 2639.09 3694.44C2618.7 3659.24 2609.45 3620.36 2600.63 3581.33C2591.09 3539.1 2581.91 3496.78 2572.63 3454.49C2558.91 3392.03 2545.31 3329.55 2531.54 3267.1C2522.79 3227.42 2513.72 3187.81 2504.98 3148.13C2491.07 3085.03 2477.41 3021.87 2463.44 2958.78C2453.65 2914.55 2443.5 2870.4 2433.53 2826.22C2426.93 2796.97 2419.91 2767.81 2413.97 2738.44C2410.95 2723.48 2409.47 2708.17 2408.05 2692.94C2405.29 2663.16 2401.91 2633.37 2400.91 2603.5C2399.84 2571.62 2397.73 2539.58 2402.81 2507.74C2403.54 2503.16 2404.03 2498.42 2403.76 2493.81C2402.24 2468.38 2406 2443.2 2408.81 2418.16C2412.89 2381.82 2419.12 2345.67 2425.79 2309.69C2436.63 2251.29 2452.51 2194.14 2472.16 2138.11C2487.16 2095.34 2503.88 2053.18 2523.99 2012.53C2540.23 1979.69 2556.49 1946.73 2575.06 1915.2C2595.33 1880.78 2617.3 1847.26 2640.32 1814.61C2661.4 1784.71 2684.45 1756.17 2707.45 1727.69C2720.81 1711.14 2735.45 1695.58 2750.15 1680.16C2766.7 1662.8 2783.8 1645.94 2800.95 1629.16C2829.52 1601.19 2860.03 1575.42 2891.34 1550.58C2935.25 1515.75 2981.28 1483.94 3029.36 1455.2C3087.78 1420.26 3148.68 1390.26 3211.8 1364.62C3267.52 1342 3324.72 1324.14 3382.92 1309.52C3421.02 1299.95 3459.6 1292.37 3498.67 1287.59C3527.06 1284.13 3555.38 1280.18 3583.77 1276.72C3590.36 1275.92 3597.09 1276.39 3603.74 1275.97C3617.66 1275.08 3631.58 1273.93 3645.5 1273C3651.48 1272.6 3657.48 1272.13 3663.46 1272.24C3692.73 1272.77 3722.12 1269.95 3751.2 1275.61C3753.13 1275.99 3755.19 1275.83 3757.18 1275.82C3797.92 1275.67 3838.06 1281.47 3878.3 1287.06C3921.25 1293.03 3963.76 1300.99 4005.73 1311.7C4073.64 1329.03 4139.71 1351.72 4204.05 1379.73C4257.95 1403.19 4309.68 1430.71 4360.06 1460.73C4387.5 1477.08 4413.9 1495.34 4439.78 1514.11C4468.33 1534.82 4496.4 1556.3 4523.45 1578.9C4550.52 1601.52 4576.16 1625.81 4601.17 1650.79C4640.35 1689.93 4676.08 1731.94 4710.58 1775.21C4739.35 1811.27 4765.11 1849.38 4789.07 1888.53C4833.33 1960.84 4870.57 2036.73 4899.84 2116.52C4914.32 2156.01 4927.14 2195.97 4937.68 2236.58C4949.06 2280.39 4958.86 2324.63 4964.29 2369.71C4967.71 2398.1 4971.66 2426.43 4975.17 2454.81C4975.9 2460.74 4975.84 2466.78 4975.95 2472.77C4976.22 2488.08 4975.48 2503.43 4979.06 2518.55C4979.97 2522.37 4979.87 2526.51 4979.76 2530.49C4978.9 2561.08 4982.44 2591.82 4976.47 2622.23C4976.09 2624.17 4976.19 2626.22 4976.19 2628.22C4976.42 2680.42 4967.28 2731.51 4958.42 2782.7C4943.2 2870.73 4922.03 2957.44 4901.96 3044.4C4884.29 3121 4866.92 3197.66 4849.41 3274.3C4835.01 3337.29 4820.69 3400.31 4806.2 3463.28C4793.8 3517.17 4781.49 3571.07 4768.61 3624.85C4758.68 3666.34 4739.28 3703.45 4712.72 3736.59C4705.02 3746.22 4703.24 3754.31 4708.3 3765.58C4715.65 3781.94 4723.05 3798.45 4725.2 3816.64C4727.68 3837.64 4733.8 3858.38 4728.7 3879.88C4726.62 3888.68 4730.9 3895.16 4737.93 3900.4C4756.63 3914.32 4775.45 3928.12 4793.71 3942.61C4826.56 3968.67 4859.28 3994.91 4891.59 4021.64C4918.26 4043.69 4944.25 4066.55 4970.53 4089.05C4971.54 4089.92 4972.52 4090.83 4973.48 4091.75C5004.84 4121.6 5036.19 4151.45 5067.54 4181.31C5069.95 4183.61 5072.37 4185.91 5074.66 4188.33C5081.25 4195.31 5089.37 4197.06 5098.45 4195.21C5103.67 4194.15 5108.84 4192.8 5114.02 4191.55C5149.82 4182.89 5186.1 4177.74 5222.92 4180.31C5271.74 4183.72 5319.31 4192.97 5363.43 4215.57C5382.99 4225.59 5403.04 4234.68 5421.14 4247.42C5464.76 4278.13 5500.53 4316.07 5528.75 4361.4C5542.22 4383.04 5552.31 4406.2 5562.19 4429.5C5602.03 4523.44 5636.85 4619.27 5667.24 4716.65C5683.51 4768.78 5698.13 4821.46 5712.28 4874.22C5729.02 4936.65 5744.45 4999.43 5760.46 5062.05C5777.3 5127.9 5794.15 5193.75 5811 5259.6C5824.04 5310.6 5837.13 5361.6 5850.11 5412.61C5852.4 5421.65 5854.03 5430.85 5856.36 5439.87C5860.4 5455.48 5857.64 5470.42 5851.28 5484.59C5846.84 5494.52 5844.73 5504.53 5843.57 5515.3C5841.28 5536.45 5837.43 5557.44 5834.36 5578.51C5829.47 5612.09 5824.75 5645.7 5819.86 5679.28C5816.79 5700.35 5813.49 5721.4 5810.4 5742.47C5805.57 5775.39 5800.87 5808.33 5796.01 5841.24C5794.45 5851.77 5793.29 5862.45 5790.65 5872.72C5785.81 5891.6 5775.73 5907.07 5757.12 5914.97C5750.54 5917.76 5743.11 5919.43 5735.97 5919.84C5711.17 5921.27 5686.86 5916.96 5662.78 5911.62C5650.12 5908.82 5639.29 5902.31 5630.67 5892.46C5621.62 5882.1 5616.39 5870.35 5615.81 5856.28C5614.9 5834.1 5619.02 5812.52 5622.37 5790.82C5623.49 5783.62 5625.24 5776.49 5621.9 5767.91C5617.96 5769.91 5614.61 5771.6 5611.26 5773.29C5595.53 5781.24 5579.53 5782.47 5563.03 5775.59C5552.58 5771.23 5541.89 5767.44 5531.47 5763C5526.62 5760.92 5521.76 5758.43 5517.61 5755.22C5496.54 5738.92 5490.34 5719.15 5499.18 5693.14C5505.18 5675.49 5512.69 5658.36 5519.61 5641.03C5535.68 5600.81 5551.84 5560.62 5567.85 5520.37C5569.56 5516.08 5570.55 5511.51 5572.21 5505.43C5572.54 5503.79 5572.53 5503.12 5572.53 5503.12L5571.95 5503.93ZM3384.32 4604C3384.22 4611.41 3384.12 4618.82 3380.48 4624.87C3377.83 4624.64 3375.19 4624.21 3372.54 4624.21C3259.99 4624.18 3147.44 4624.17 3034.89 4624.24C3031.17 4624.24 3027.45 4625.12 3022.46 4625.75C3023.95 4632.76 3024.95 4638.58 3026.44 4644.26C3042.34 4704.75 3058.24 4765.23 3074.33 4825.67C3077.05 4835.9 3080.64 4845.9 3083.5 4859.27C3089.57 4883.08 3095.54 4906.93 3101.75 4930.71C3109.99 4962.28 3120.59 4993.06 3133.93 5022.84C3136.61 5028.82 3140.19 5034.39 3143.78 5043.03C3151.87 5058.22 3159.3 5073.81 3168.16 5088.55C3196.64 5135.92 3230.04 5179.43 3272.39 5219C3311.92 5255.66 3355.3 5286.94 3402.88 5312.34C3405.73 5313.86 3408.88 5314.83 3414.13 5317.75C3443.06 5332.89 3473.25 5345.1 3504.39 5354.7C3530.37 5362.72 3556.44 5370.85 3586.43 5374.51C3640.39 5383.19 3662.39 5384.63 3682.29 5380.43C3682.66 5376.29 3683.38 5371.8 3683.43 5367.3C3683.58 5351.99 3683.65 5336.67 3683.45 5321.35C3683.26 5306.06 3682.71 5290.78 3683.12 5271.89C3683.24 5263.92 3683.47 5255.94 3683.47 5247.96C3683.5 5116.91 3683.48 4985.86 3683.52 4854.8C3683.52 4847.63 3683.93 4840.46 3684.18 4832.67C3691.97 4832.67 3698.29 4832.67 3704.38 4832.67C3708.26 4840.51 3706.69 4847.95 3706.7 4855.12C3706.81 4976.86 3706.76 5098.6 3706.82 5220.33C3706.82 5228.29 3707.36 5236.26 3706.86 5247.87C3706.85 5286.47 3706.76 5325.08 3706.9 5363.68C3706.93 5369.45 3705.26 5375.72 3710.52 5381.76C3712.98 5381.95 3716.25 5382.72 3719.38 5382.35C3745.13 5379.32 3771.09 5377.37 3796.55 5372.68C4011.09 5333.15 4186.4 5182.84 4257.47 4977.1C4269.18 4943.2 4277.57 4908.16 4287.39 4873.62C4287.9 4871.8 4287.38 4869.69 4288.73 4865.06C4289.68 4862.57 4290.83 4860.14 4291.53 4857.58C4311.4 4785.01 4331.25 4712.43 4350.98 4639.82C4352.16 4635.45 4352.26 4630.79 4353.06 4624.83C4345.59 4624.59 4339.1 4624.2 4332.6 4624.2C4227.28 4624.16 4121.97 4624.15 4016.65 4624.22C4010.02 4624.23 4003.39 4625.01 3996.34 4622.08C3996.58 4614.5 3994.36 4606.51 4003.82 4600.39C4117.8 4600.43 4231.79 4600.48 4345.77 4600.45C4350.93 4600.45 4356.09 4599.64 4361.66 4599.17C4364.82 4588.1 4367.85 4577.96 4370.58 4567.73C4371.77 4563.24 4372.5 4558.6 4373.16 4553.99C4379.27 4511.48 4354.23 4470.53 4313.71 4456.35C4302.18 4452.32 4290.34 4451.44 4278.27 4451.47C4224.28 4451.61 4170.29 4451.52 4116.3 4451.74C4103.5 4451.79 4091.02 4450.47 4078.95 4446.2C4041.32 4432.87 4017.33 4395.83 4020.25 4355.67C4023.03 4317.41 4054.32 4283.02 4093.38 4276.11C4103.15 4274.38 4113.28 4274.13 4123.24 4274.11C4203.23 4273.95 4283.21 4274.09 4363.2 4273.94C4374.51 4273.92 4385.94 4273.74 4397.09 4272.12C4437.09 4266.35 4469.31 4230.39 4471.72 4189.7C4474.18 4148.05 4447.37 4110.73 4407.31 4099.45C4396.19 4096.32 4384.98 4096.15 4373.64 4096.16C4169.01 4096.17 3964.37 4096.17 3759.74 4096.17C3746.41 4096.17 3733.07 4096.06 3719.75 4096.25C3715.94 4096.3 3712.14 4097.21 3707.22 4097.88C3707.06 4105.94 3706.8 4113.17 3706.79 4120.39C3706.76 4179.05 3706.84 4237.71 3706.68 4296.37C3706.66 4303.52 3708.45 4311.02 3704.17 4318.33C3697.96 4318.33 3691.67 4318.33 3684.33 4318.33C3684.02 4310.73 3683.53 4304.19 3683.53 4297.65C3683.47 4237.66 3683.52 4177.67 3683.45 4117.68C3683.44 4111.19 3682.85 4104.7 3682.51 4097.75C3673.58 4095.34 3665.61 4096.21 3657.77 4096.2C3441.8 4096.16 3225.84 4096.17 3009.87 4096.17C3004.54 4096.17 2999.2 4096.05 2993.88 4096.24C2947.39 4097.86 2910.01 4134.52 2908.23 4180.19C2906.37 4227.71 2942.1 4268.64 2989.35 4272.87C2997.3 4273.58 3005.33 4273.51 3013.32 4273.52C3093.31 4273.56 3173.3 4273.45 3253.28 4273.65C3264.57 4273.68 3276.03 4274.13 3287.09 4276.15C3327.84 4283.58 3359.03 4319.92 3359.94 4360.04C3361.05 4408.69 3324.42 4448.33 3275.33 4451.42C3268.02 4451.87 3260.67 4451.66 3253.34 4451.66C3199.35 4451.69 3145.36 4451.78 3091.37 4451.67C3045 4451.59 3001.36 4491.05 3002.78 4543.38C3003.31 4562.98 3009.52 4581.05 3015.66 4600.51C3022.97 4600.51 3029.55 4600.51 3036.13 4600.51C3144.78 4600.51 3253.43 4600.51 3362.08 4600.48C3368.07 4600.48 3374.06 4600.13 3381.73 4600.49C3381.73 4600.49 3383.5 4600.41 3384.32 4604ZM1841.38 5095.4C1850.88 5139.72 1869.24 5180.24 1896.47 5216.24C1964.39 5306.05 2054.86 5351.99 2167.76 5352.84C2171.93 5352.87 2177.37 5354.99 2179.87 5348.21C2176.85 5344.24 2173.44 5340.18 2170.48 5335.81C2157.79 5317.09 2144.05 5298.95 2132.84 5279.37C2094.36 5212.15 2076.42 5138.89 2072.3 5062.04C2067.96 4980.88 2078.09 4901.1 2098.29 4822.64C2108.07 4784.65 2120.28 4747.29 2132.65 4707.72C2138.75 4691.54 2144.62 4675.26 2151 4659.19C2157.63 4642.5 2164.55 4625.92 2171.72 4609.45C2178.61 4593.59 2186.19 4578.02 2193.09 4562.16C2200.16 4545.9 2210.45 4531.04 2215.73 4511.85C2206.99 4512.27 2199.72 4512.02 2192.63 4513.07C2080.93 4529.5 1999.22 4587.76 1950.41 4689.83C1919.41 4754.64 1890.42 4820.42 1860.78 4885.88C1838.39 4935.35 1829.27 4987.42 1832.9 5041.49C1834.04 5058.62 1834.68 5076.11 1841.38 5095.4ZM2533.76 4797.4C2522.9 4624.89 2375.8 4514.06 2245.45 4513.12C2243.27 4516.66 2240.63 4520.44 2238.51 4524.49C2212.29 4574.69 2188.96 4626.21 2168.48 4679.01C2166.82 4683.28 2166.04 4687.89 2163.01 4694.62C2159.93 4702.63 2156.62 4710.56 2153.81 4718.66C2127.03 4795.6 2106.59 4874 2098.7 4955.37C2093.02 5014.03 2093.42 5072.45 2104.32 5130.51C2118.62 5206.65 2149.49 5275.09 2200.11 5334.17C2204.4 5339.17 2209.08 5343.83 2213.83 5348.9C2220.26 5348.13 2226.26 5347.9 2232.03 5346.65C2312.58 5329.2 2378.89 5288.6 2429.35 5223.29C2459.46 5184.33 2480.74 5141.12 2489.45 5092.03C2502.93 5016 2517.65 4940.18 2530.82 4864.09C2534.43 4843.28 2537.53 4821.93 2533.76 4797.4ZM5171.36 5167.13C5247.04 5045.03 5276.85 4911.04 5274.07 4768.76C5273.14 4721.45 5268.36 4674.45 5260.41 4627.75C5245.59 4540.75 5220.68 4456.75 5186.66 4375.4C5184.66 4370.62 5181.88 4366.18 5178.93 4360.59C5169.26 4362.66 5160.18 4364.31 5151.25 4366.56C5118.98 4374.66 5086.74 4382.86 5054.54 4391.21C5029.46 4397.7 5004.45 4404.46 4976.22 4411C4967.81 4413.03 4959.26 4414.61 4951.02 4417.19C4920.19 4426.83 4894.69 4444.37 4875.88 4470.72C4849.15 4508.15 4841.58 4549.45 4852.69 4594.12C4859.12 4619.96 4866.13 4645.67 4871.93 4671.64C4905.25 4820.91 4922.42 4972.2 4928.43 5124.9C4929.06 5140.8 4930.62 5156.89 4933.92 5172.43C4946.92 5233.7 4978.68 5284.4 5023.73 5327.21C5025.47 5328.87 5028.03 5329.67 5030.42 5330.98C5063.02 5303.21 5092.25 5273.19 5118.8 5240.6C5137.29 5217.9 5155.34 5194.84 5171.36 5167.13ZM5185.43 5189.1C5148.89 5245.17 5105.62 5295.45 5055.68 5340.01C5053.36 5342.08 5051.51 5344.7 5049.33 5347.18C5051.21 5349.58 5052.15 5351.42 5053.63 5352.55C5081.25 5373.82 5111.58 5390.2 5144.26 5402.23C5146.31 5402.99 5148.89 5402.33 5152.24 5402.33C5151.64 5396.51 5151.07 5391.96 5150.71 5387.38C5148.25 5356.28 5163.9 5332.68 5193.73 5323.96C5213.51 5318.18 5233.46 5312.8 5253.62 5308.62C5287.16 5301.65 5314.68 5318.57 5324.29 5351.4C5328.78 5366.7 5332.25 5382.3 5336.35 5397.73C5338.02 5404.04 5340.13 5410.23 5342.44 5417.76C5349.27 5416.33 5355.13 5415.58 5360.69 5413.87C5418.95 5395.92 5467.11 5362.97 5505.55 5315.75C5507.18 5313.74 5508.16 5311.19 5511.58 5307.33C5570.05 5229.09 5589.48 5141.21 5569.83 5046.44C5542.64 4915.27 5507.58 4786.06 5460.16 4660.54C5438.28 4602.61 5415.2 4545.13 5392.51 4487.5C5383.64 4464.98 5371.38 4444.4 5355.05 4426.49C5318.4 4386.3 5273.08 4363.54 5218.61 4359.68C5215.02 4359.43 5210.66 4358.23 5207.59 4363.75C5209.13 4367.97 5210.77 4372.95 5212.74 4377.79C5250.27 4470.2 5276.38 4565.63 5289.15 4664.65C5299.68 4746.4 5300.52 4828.06 5288.63 4909.76C5275.03 5003.22 5244.65 5090.69 5196.08 5171.78C5193.03 5176.89 5190.42 5182.27 5185.43 5189.1ZM2705.19 2048.92C2668.67 2117.37 2640.92 2189.29 2619.96 2263.9C2598.26 2341.17 2585.9 2420 2581.07 2500.02C2580.12 2515.89 2580.93 2531.85 2580.93 2548.74C2585.61 2549.32 2590.11 2550.37 2594.6 2550.37C2675.24 2550.47 2755.89 2550.46 2836.53 2550.38C2840.28 2550.37 2844.04 2549.5 2848.87 2548.89C2851.42 2493.9 2856.04 2440.28 2867.47 2387.43C2878.9 2334.54 2894.89 2283.15 2916 2233.35C2937.39 2182.9 2963.54 2135.04 2994.32 2089.72C3024.74 2044.93 3059.12 2003.42 3097.51 1965.25C3135.91 1927.07 3177.58 1892.9 3222.54 1862.73C3267.48 1832.57 3314.92 1807.05 3364.82 1786.09C3415.31 1764.86 3467.47 1749.05 3521.07 1737.83C3573.89 1726.78 3627.53 1722.6 3681.98 1719.79C3684.48 1696.63 3682.93 1674.72 3683.21 1652.89C3683.49 1630.9 3683.27 1608.9 3683.27 1586.91C3683.27 1564.25 3683.52 1541.59 3683.2 1518.93C3682.9 1497.15 3684.59 1475.28 3682.12 1454.17C3679.64 1453.11 3678.48 1452.22 3677.27 1452.17C3671.96 1451.94 3666.63 1451.79 3661.31 1451.9C3600.56 1453.17 3540.42 1459.98 3480.72 1471.27C3357.81 1494.52 3242.46 1537.92 3134.19 1600.36C3129.1 1603.3 3124.54 1607.16 3116.87 1611.17C3115.06 1611.98 3113.12 1612.6 3111.44 1613.64C2941.75 1718.39 2809 1858.24 2713.25 2033.17C2710.75 2037.73 2709.55 2043.01 2705.19 2048.92ZM3331.37 3672.02C3338.7 3672.11 3346.03 3672.3 3353.36 3672.3C3721.92 3672.31 4090.49 3672.31 4459.05 3672.31C4464.39 3672.31 4469.72 3672.36 4475.05 3672.27C4511.66 3671.67 4542.28 3657.48 4567.27 3631.03C4584.69 3612.59 4594.25 3590.23 4599.85 3565.69C4643.58 3374.14 4687.52 3182.64 4731.29 2991.09C4733.05 2983.39 4733.77 2975.45 4736.09 2964.71C4740.72 2946 4745.69 2927.36 4749.91 2908.55C4764.47 2843.68 4781.6 2779.33 4790.23 2713.24C4795.57 2672.31 4799.52 2631.25 4800.05 2589.93C4800.11 2584.88 4799.22 2579.82 4798.7 2574.02C4793.51 2573.7 4789.6 2573.25 4785.7 2573.25C4705.15 2573.22 4624.61 2573.21 4544.07 2573.3C4540.26 2573.31 4536.45 2574.33 4532.16 2574.95C4531.69 2580.28 4531.12 2584.85 4530.93 2589.43C4527.46 2671 4514.26 2750.85 4487.73 2828.19C4470.44 2878.57 4451.56 2928.34 4417.87 2972.73C4411.53 2979.53 4404.94 2986.12 4398.9 2993.17C4371.54 3025.09 4342.14 3055.09 4310.45 3082.62C4156.4 3216.5 3977.97 3293.98 3774.44 3312.98C3710.53 3318.95 3646.66 3318.31 3582.99 3311.03C3501.22 3301.68 3421.84 3282.04 3345.3 3251.58C3238.36 3209.02 3142.05 3149.33 3057.23 3071.4C3028.28 3044.79 3000.85 3016.67 2975.37 2986.66C2970.79 2981.26 2967.57 2973.99 2958.03 2970.03C2950.04 2959.42 2943.18 2948.11 2937.28 2936.22C2908.72 2878.76 2886.89 2818.84 2872.21 2756.38C2860.61 2707.03 2853.07 2657.08 2850.84 2606.35C2850.38 2595.85 2850.93 2585.11 2847.51 2575.08C2829.24 2572.31 2707.04 2571.43 2595.51 2573.25C2590.99 2573.33 2586.48 2573.98 2581.02 2574.44C2580.62 2580.49 2579.78 2585.65 2580.02 2590.77C2580.99 2611.39 2582.16 2631.99 2583.51 2652.59C2586 2690.5 2590.97 2728.14 2598.56 2765.34C2607.22 2807.71 2616.69 2849.92 2626.28 2892.1C2632.03 2917.38 2638.69 2942.47 2644.38 2970.83C2644.83 2973.45 2645.16 2976.09 2645.76 2978.68C2663.85 3057.8 2681.97 3136.91 2700.1 3216.02C2723.87 3319.78 2747.64 3423.53 2771.52 3527.26C2772.53 3531.66 2774.67 3535.8 2776.07 3543.27C2779.06 3556.88 2781.07 3570.79 2785.26 3584.02C2793.3 3609.41 2808.33 3630.37 2829.77 3646.32C2857.7 3667.09 2889.11 3675.36 2927.43 3672.05C3000.34 3672.15 3073.26 3672.25 3146.17 3672.3C3148.13 3672.31 3150.1 3671.85 3155.78 3672.06C3207.77 3672.1 3259.76 3672.16 3311.75 3672.11C3317.06 3672.11 3322.36 3671.46 3331.37 3672.02ZM4158.78 2531.21C4165.88 2536.17 4173.08 2540.98 4180.06 2546.1C4203.69 2563.44 4226.51 2581.77 4248.08 2601.67C4252.87 2606.09 4258.77 2610.07 4264.88 2612.18C4297.98 2623.62 4327.43 2612.93 4337.37 2577.75C4340.71 2565.92 4340.27 2554.08 4338.54 2542.1C4337.49 2534.86 4336.21 2527.56 4336.25 2520.3C4336.41 2491.45 4331.43 2463.19 4325.49 2435.26C4310.12 2363.04 4283.97 2294.87 4245.84 2231.41C4221.72 2191.27 4193.33 2154.39 4161.68 2120.06C4146.36 2103.44 4129.77 2088.06 4112.29 2073.5C4087.18 2052.56 4061.45 2032.68 4033.55 2015.6C4002.25 1996.42 3969.74 1979.68 3935.86 1965.47C3908.13 1953.83 3879.74 1944.55 3850.58 1937.21C3815.64 1928.41 3780.51 1921.25 3744.4 1919.84C3740.41 1919.68 3736.43 1919.2 3732.45 1918.87C3721.2 1917.93 3709.96 1916.48 3698.69 1916.16C3666 1915.23 3633.66 1919.47 3601.27 1923.22C3560.7 1927.92 3521.5 1938.21 3482.67 1950.4C3450.07 1960.62 3419.87 1976.18 3389.3 1991.06C3339.74 2015.19 3295.64 2047.31 3254.81 2083.77C3213.94 2120.28 3178.26 2161.71 3148.3 2207.72C3120.95 2249.7 3098.93 2294.36 3080.86 2341.2C3054.4 2409.82 3044.17 2481.29 3040.09 2554.05C3039.79 2559.35 3039.87 2564.74 3040.39 2570.03C3042.33 2589.72 3058.32 2610.83 3075.6 2614.56C3095.95 2618.94 3115.38 2616.7 3131.8 2601.95C3143.19 2591.73 3154.73 2581.67 3166.32 2571.68C3188.55 2552.5 3212.15 2535.15 3237.11 2519.7C3253.52 2509.53 3270.34 2500.02 3286.86 2490.01C3316.6 2472 3348.03 2457.26 3380.4 2444.99C3422.72 2428.94 3465.57 2414.26 3510.17 2405.21C3553.93 2396.32 3597.64 2387.82 3642.54 2387.79C3648.5 2387.79 3654.46 2386.73 3660.39 2385.94C3680.31 2383.26 3700.2 2383.22 3720.12 2386.02C3726.7 2386.94 3733.36 2387.87 3739.97 2387.82C3772.77 2387.6 3804.98 2393.07 3837.05 2398.68C3862.58 2403.14 3887.92 2409.31 3912.87 2416.4C3962.29 2430.42 4010.67 2447.56 4056.7 2470.6C4091.29 2487.9 4124.52 2507.63 4158.78 2531.21ZM4222.89 1911.08C4420.89 2077.51 4521.8 2291.21 4531.96 2548.26C4550.79 2551.43 4679.24 2552.45 4784.78 2550.4C4789.3 2550.31 4793.82 2549.52 4799.58 2548.93C4799.74 2541.65 4800.13 2535.13 4799.97 2528.63C4798.36 2465.21 4791.17 2402.37 4778.44 2340.27C4745.72 2180.65 4681.61 2034.71 4584.47 1903.82C4449.33 1721.71 4274.92 1591.98 4061.37 1515.14C3988.4 1488.88 3913.34 1471.18 3836.56 1460.96C3798.27 1455.86 3759.76 1452.29 3721.06 1451.98C3716.61 1451.95 3712.16 1452.93 3707.49 1453.47C3707.09 1457.81 3706.51 1461.08 3706.51 1464.35C3706.46 1545.64 3706.45 1626.94 3706.54 1708.23C3706.55 1712.01 3707.61 1715.79 3708.3 1720.44C3900.44 1726.93 4071.33 1789.11 4222.89 1911.08Z" fill="#0A1E20"/>
<path d="M2923.72 3671.23C2889.11 3675.36 2857.7 3667.09 2829.77 3646.32C2808.33 3630.37 2793.3 3609.41 2785.26 3584.02C2781.07 3570.79 2779.06 3556.88 2777.51 3541.44C2787.08 3536.45 2790.43 3528.63 2795.07 3522.36C2818.45 3490.76 2841.43 3458.87 2864.53 3427.07C2875.89 3411.44 2887.81 3396.18 2898.4 3380.05C2919.27 3348.29 2925.5 3313.95 2914.3 3277.02C2907.97 3256.15 2897.6 3237.62 2881.26 3223.16C2844.81 3190.9 2810.07 3156.89 2776.31 3121.88C2762 3107.03 2748.1 3091.7 2734.96 3075.8C2708.66 3043.98 2681.88 3012.52 2658.68 2978.26C2655.32 2973.29 2651.67 2968.39 2644.94 2967.64C2638.69 2942.47 2632.03 2917.38 2626.28 2892.1C2616.69 2849.92 2607.22 2807.71 2598.56 2765.34C2590.97 2728.14 2586 2690.5 2583.51 2652.59C2582.16 2631.99 2580.99 2611.39 2580.02 2590.77C2579.78 2585.65 2580.62 2580.49 2581.02 2574.44C2586.48 2573.98 2590.99 2573.33 2595.51 2573.25C2707.04 2571.43 2829.24 2572.31 2847.51 2575.08C2850.93 2585.11 2850.38 2595.85 2850.84 2606.35C2853.07 2657.08 2860.62 2707.03 2872.21 2756.38C2886.89 2818.85 2908.72 2878.76 2937.28 2936.22C2943.18 2948.11 2950.04 2959.42 2958.62 2972.62C2962.17 2981.15 2964.78 2987.29 2968.13 2992.99C3000.74 3048.41 3039.79 3098.99 3084.38 3145.21C3163.13 3226.85 3254.75 3290.12 3358.93 3334.94C3461.86 3379.22 3569.65 3401.09 3681.55 3403.08C3717.59 3403.72 3753.44 3400.81 3789.21 3396.69C3884.16 3385.77 3974.54 3359.14 4060.28 3317.1C4167.12 3264.71 4258.72 3192.67 4335.2 3101.51C4363.95 3067.24 4389.91 3030.93 4412.66 2992.37C4416.3 2986.2 4421.64 2980.54 4420.61 2972.43C4451.56 2928.34 4470.44 2878.57 4487.73 2828.19C4514.26 2750.85 4527.46 2671 4530.93 2589.43C4531.12 2584.85 4531.69 2580.28 4532.16 2574.95C4536.45 2574.33 4540.26 2573.31 4544.07 2573.3C4624.61 2573.21 4705.15 2573.22 4785.7 2573.25C4789.6 2573.25 4793.51 2573.7 4798.7 2574.02C4799.22 2579.82 4800.11 2584.88 4800.05 2589.93C4799.52 2631.25 4795.57 2672.31 4790.23 2713.24C4781.6 2779.33 4764.47 2843.68 4749.91 2908.55C4745.69 2927.36 4740.72 2946 4734.21 2966.4C4728.5 2971.66 4724.1 2974.79 4720.94 2978.88C4708.35 2995.21 4696.43 3012.07 4683.73 3028.32C4656.25 3063.44 4627.97 3097.92 4596.37 3129.47C4568.12 3157.68 4540.98 3187.05 4509.91 3212.35C4488.77 3229.57 4468.39 3247.76 4446.9 3264.53C4396.98 3303.48 4345.08 3339.68 4289.23 3369.69C4249.97 3390.79 4210.3 3411.31 4169.87 3430.06C4122.13 3452.21 4072.41 3469.6 4021.73 3483.89C3981.38 3495.27 3940.82 3505.86 3899.34 3512.66C3869.14 3517.61 3839.04 3522.98 3808.46 3525.17C3779.3 3527.25 3750.19 3530.87 3721.01 3531.46C3684.47 3532.2 3647.93 3532.78 3611.32 3528.84C3584.92 3526 3558.38 3524.2 3532.02 3520.61C3518.88 3518.81 3505.48 3516.1 3492.41 3517C3452.99 3519.72 3421.33 3537.93 3397.78 3569.59C3376.73 3597.89 3356.13 3626.54 3335.62 3655.23C3332.22 3659.99 3330.28 3665.79 3327.67 3671.1C3322.36 3671.46 3317.06 3672.11 3311.75 3672.11C3259.76 3672.16 3207.77 3672.1 3153.98 3670.42C3154.06 3664.6 3155.32 3659.99 3157.93 3656.33C3175.32 3631.96 3192.95 3607.77 3210.58 3583.57C3236.45 3548.1 3262.44 3512.7 3288.23 3477.16C3290.45 3474.11 3291.6 3470.27 3293.55 3466.16C3290.11 3463.89 3287.61 3461.6 3284.66 3460.41C3274.8 3456.42 3264.69 3453.05 3254.83 3449.02C3215.41 3432.92 3176.35 3416.01 3138.55 3396.32C3128.57 3391.12 3125.43 3391.81 3118.25 3400.89C3113.3 3407.15 3108.68 3413.68 3103.98 3420.13C3051.9 3491.66 2999.76 3563.15 2947.83 3634.8C2939.3 3646.58 2931.73 3659.07 2923.72 3671.23Z" fill="#B5C3C3"/>
<path d="M4157.58 2530.41C4124.52 2507.63 4091.29 2487.9 4056.7 2470.6C4010.67 2447.56 3962.29 2430.42 3912.87 2416.4C3887.92 2409.31 3862.58 2403.14 3837.05 2398.68C3804.98 2393.07 3772.77 2387.6 3739.97 2387.82C3733.36 2387.87 3726.7 2386.94 3720.12 2386.02C3700.2 2383.22 3680.31 2383.26 3660.39 2385.94C3654.46 2386.73 3648.5 2387.79 3642.54 2387.79C3597.64 2387.82 3553.93 2396.32 3510.17 2405.21C3465.57 2414.26 3422.72 2428.94 3380.4 2444.99C3348.03 2457.26 3316.6 2472 3286.86 2490.01C3270.34 2500.02 3253.52 2509.53 3237.11 2519.7C3212.15 2535.15 3188.55 2552.5 3166.32 2571.68C3154.73 2581.67 3143.19 2591.73 3131.8 2601.95C3115.38 2616.7 3095.95 2618.94 3075.6 2614.56C3058.32 2610.83 3042.33 2589.72 3040.39 2570.03C3039.87 2564.74 3039.79 2559.35 3040.09 2554.05C3044.17 2481.29 3054.4 2409.82 3080.86 2341.2C3098.93 2294.36 3120.95 2249.7 3148.3 2207.72C3178.26 2161.71 3213.94 2120.28 3254.81 2083.77C3295.64 2047.31 3339.74 2015.19 3389.3 1991.06C3419.87 1976.18 3450.07 1960.62 3482.67 1950.4C3521.5 1938.21 3560.7 1927.92 3601.27 1923.22C3633.66 1919.47 3666 1915.23 3698.69 1916.16C3709.96 1916.48 3721.2 1917.93 3732.45 1918.87C3736.43 1919.2 3740.41 1919.68 3744.4 1919.84C3780.51 1921.25 3815.64 1928.41 3850.58 1937.21C3879.74 1944.55 3908.13 1953.83 3935.86 1965.47C3969.74 1979.68 4002.25 1996.42 4033.55 2015.6C4061.45 2032.68 4087.18 2052.56 4112.29 2073.5C4129.77 2088.06 4146.36 2103.44 4161.68 2120.06C4193.33 2154.39 4221.72 2191.27 4245.84 2231.41C4283.97 2294.87 4310.12 2363.04 4325.49 2435.26C4331.43 2463.19 4336.41 2491.45 4336.25 2520.3C4336.21 2527.56 4337.49 2534.86 4338.54 2542.1C4340.27 2554.08 4340.71 2565.92 4337.37 2577.75C4327.43 2612.93 4297.98 2623.62 4264.88 2612.18C4258.77 2610.07 4252.87 2606.09 4248.08 2601.67C4226.51 2581.77 4203.69 2563.44 4180.06 2546.1C4173.08 2540.98 4165.88 2536.17 4157.58 2530.41Z" fill="#233537"/>
<path d="M3083.83 4856.01C3080.64 4845.9 3077.05 4835.9 3074.33 4825.67C3058.24 4765.23 3042.34 4704.75 3026.44 4644.26C3024.95 4638.58 3023.95 4632.76 3022.46 4625.75C3027.45 4625.12 3031.17 4624.24 3034.89 4624.24C3147.44 4624.17 3259.99 4624.18 3372.54 4624.21C3375.19 4624.21 3377.83 4624.64 3382.24 4625.42C3384.01 4625.97 3383.75 4625.91 3383.52 4627.67C3385.09 4643.14 3386.94 4656.83 3395.91 4668.12C3395.96 4668 3395.71 4667.98 3395.65 4669.35C3398.35 4675.23 3401.12 4679.73 3403.93 4684.13C3403.98 4684.01 3403.73 4684.01 3403.84 4685.19C3405.23 4687.02 3406.51 4687.68 3407.84 4688.21C3407.9 4688.1 3407.64 4688.11 3407.4 4689.37C3408.74 4692.51 3410.32 4694.38 3411.94 4696.13C3411.98 4696.02 3411.73 4696.03 3411.89 4697.16C3413.32 4698.97 3414.58 4699.64 3415.89 4700.19C3415.93 4700.07 3415.68 4700.13 3415.74 4701.32C3417.13 4703.13 3418.47 4703.73 3419.86 4704.22C3419.92 4704.09 3419.66 4704.18 3419.63 4705.42C3420.99 4707.23 3422.39 4707.79 3423.84 4708.23C3423.9 4708.1 3423.64 4708.21 3423.57 4709.46C3424.94 4711.27 3426.36 4711.81 3427.84 4712.23C3427.9 4712.1 3427.64 4712.21 3427.58 4713.46C3428.95 4715.26 3430.37 4715.81 3431.85 4716.22C3431.9 4716.08 3431.64 4716.22 3431.62 4717.44C3433.01 4719.22 3434.43 4719.77 3435.89 4720.2C3435.92 4720.07 3435.68 4720.18 3435.78 4721.34C3437.23 4723.1 3438.58 4723.69 3439.95 4724.17C3439.96 4724.04 3439.74 4724.15 3440.23 4725.37C3443.11 4727.2 3445.49 4727.8 3447.87 4728.27C3447.87 4728.13 3447.63 4728.26 3447.63 4729.47C3449.07 4731.21 3450.51 4731.75 3451.97 4732.16C3451.98 4732.04 3451.76 4732.15 3452.47 4733.38C3473.7 4747.44 3496.53 4750.33 3520.08 4750.33C3633.01 4750.31 3745.94 4750.36 3858.87 4750.25C3866.13 4750.24 3873.38 4749.1 3882.24 4748.62C3943.86 4741.28 3993.14 4687.45 3996.76 4625.43C4003.39 4625.01 4010.02 4624.23 4016.65 4624.22C4121.97 4624.15 4227.28 4624.16 4332.6 4624.2C4339.1 4624.2 4345.59 4624.59 4353.06 4624.83C4352.26 4630.79 4352.16 4635.45 4350.98 4639.82C4331.25 4712.43 4311.4 4785.01 4291.53 4857.58C4290.83 4860.14 4289.68 4862.57 4286.71 4866.62C4279.08 4872.81 4273.19 4877.14 4267.94 4882.13C4254.92 4894.53 4242.77 4907.91 4229.21 4919.69C4195 4949.42 4159.03 4976.9 4120.61 5001.08C4075.93 5029.2 4029.31 5053.38 3979.67 5071.48C3955.89 5080.15 3931.75 5087.81 3908.02 5096.59C3891.8 5102.59 3875.43 5108.63 3860.16 5116.62C3826.32 5134.35 3796.37 5157.58 3769.5 5184.79C3754.06 5200.44 3738.52 5215.99 3722.82 5231.39C3718.1 5236.01 3712.72 5239.96 3707.65 5244.22C3707.36 5236.26 3706.82 5228.29 3706.82 5220.33C3706.76 5098.6 3706.81 4976.86 3706.7 4855.12C3706.69 4847.95 3708.26 4840.51 3704.38 4832.67C3698.29 4832.67 3691.97 4832.67 3684.18 4832.67C3683.93 4840.46 3683.52 4847.63 3683.52 4854.8C3683.48 4985.86 3683.5 5116.91 3683.47 5247.96C3683.47 5255.94 3683.24 5263.92 3681.48 5274.07C3676.79 5278.74 3673.49 5280.98 3670.71 5283.75C3644.54 5309.78 3618.42 5335.87 3592.41 5362.06C3589.2 5365.29 3586.68 5369.22 3583.84 5372.83C3556.44 5370.85 3530.37 5362.72 3504.39 5354.7C3473.25 5345.1 3443.06 5332.89 3413.01 5315.45C3413.77 5309.02 3415.09 5304.47 3417.7 5300.87C3420.79 5296.6 3424.96 5293.12 3428.72 5289.36C3479.05 5239.04 3529.41 5188.77 3579.66 5138.38C3584.19 5133.84 3590.06 5130.14 3592.16 5122.3C3584.82 5118.3 3577.09 5117.24 3569.37 5116.18C3525.77 5110.2 3483.2 5099.78 3441.36 5086.32C3416.71 5078.38 3418.17 5076.33 3398.1 5096.47C3362.88 5131.79 3327.58 5167.04 3292.25 5202.25C3286.2 5208.28 3280.84 5215.5 3271.32 5216.53C3230.04 5179.43 3196.64 5135.92 3168.16 5088.55C3159.3 5073.81 3151.87 5058.22 3144.74 5040.89C3156.61 5028.11 3168.31 5018.15 3178.22 5006.65C3194.77 4987.47 3196.56 4961.24 3176.67 4942.34C3170.9 4936.86 3165.49 4930.95 3159.36 4925.91C3135.26 4906.05 3113.42 4883.87 3092.09 4861.14C3089.95 4858.85 3086.61 4857.69 3083.83 4856.01ZM4216.67 4678.7C4213.81 4682.5 4210.86 4686.85 4213.34 4691.37C4215.77 4695.81 4219.08 4700.77 4223.32 4703.02C4242.02 4712.94 4261.29 4712.89 4280.38 4703.67C4282.71 4702.55 4284.81 4700.77 4286.69 4698.96C4293.28 4692.6 4293.81 4683.91 4286.9 4678.14C4281.98 4674.03 4275.95 4670.13 4269.83 4668.78C4252.04 4664.85 4234.34 4664.65 4216.67 4678.7ZM3109.29 4670.64C3105.41 4673.15 3100.96 4675.1 3097.76 4678.29C3091.22 4684.81 3091.64 4693.17 3098.69 4699.27C3102.15 4702.26 3106.29 4704.89 3110.57 4706.43C3125.5 4711.8 3140.73 4711.88 3155.55 4706.13C3160.33 4704.27 3164.82 4700.85 3168.5 4697.18C3173.68 4692.02 3173.27 4684.7 3168.48 4679.1C3163.02 4672.7 3155.7 4669.58 3147.72 4668.03C3135.78 4665.7 3123.86 4665.96 3109.29 4670.64Z" fill="#B5C3C3"/>
<path d="M3380.05 4599.94C3374.06 4600.13 3368.07 4600.48 3362.08 4600.48C3253.43 4600.51 3144.78 4600.51 3036.13 4600.51C3029.55 4600.51 3022.97 4600.51 3015.66 4600.51C3009.52 4581.05 3003.31 4562.98 3002.78 4543.38C3001.36 4491.05 3045 4451.59 3091.37 4451.67C3145.36 4451.78 3199.35 4451.69 3253.34 4451.66C3260.67 4451.66 3268.02 4451.87 3275.33 4451.42C3324.42 4448.33 3361.05 4408.69 3359.94 4360.04C3359.03 4319.92 3327.84 4283.58 3287.09 4276.15C3276.03 4274.13 3264.57 4273.68 3253.28 4273.65C3173.3 4273.45 3093.31 4273.56 3013.32 4273.52C3005.33 4273.51 2997.3 4273.58 2989.35 4272.87C2942.1 4268.64 2906.37 4227.71 2908.23 4180.19C2910.01 4134.52 2947.39 4097.86 2993.88 4096.24C2999.2 4096.05 3004.54 4096.17 3009.87 4096.17C3225.84 4096.17 3441.8 4096.16 3657.77 4096.2C3665.61 4096.21 3673.58 4095.34 3682.51 4097.75C3682.85 4104.7 3683.44 4111.19 3683.45 4117.68C3683.52 4177.67 3683.47 4237.66 3683.53 4297.65C3683.53 4304.19 3684.02 4310.73 3684.33 4318.33C3691.67 4318.33 3697.96 4318.33 3704.17 4318.33C3708.45 4311.02 3706.66 4303.52 3706.68 4296.37C3706.84 4237.71 3706.76 4179.05 3706.79 4120.39C3706.8 4113.17 3707.06 4105.94 3707.22 4097.88C3712.14 4097.21 3715.94 4096.3 3719.75 4096.25C3733.07 4096.06 3746.41 4096.17 3759.74 4096.17C3964.37 4096.17 4169.01 4096.17 4373.64 4096.16C4384.98 4096.15 4396.19 4096.32 4407.31 4099.45C4447.37 4110.73 4474.18 4148.05 4471.72 4189.7C4469.31 4230.39 4437.09 4266.35 4397.09 4272.12C4385.94 4273.74 4374.51 4273.92 4363.2 4273.94C4283.21 4274.09 4203.23 4273.95 4123.24 4274.11C4113.28 4274.13 4103.15 4274.38 4093.38 4276.11C4054.32 4283.02 4023.03 4317.41 4020.25 4355.67C4017.33 4395.83 4041.32 4432.87 4078.95 4446.2C4091.02 4450.47 4103.5 4451.79 4116.3 4451.74C4170.29 4451.52 4224.28 4451.61 4278.27 4451.47C4290.34 4451.44 4302.18 4452.32 4313.71 4456.35C4354.23 4470.53 4379.27 4511.48 4373.16 4553.99C4372.5 4558.6 4371.77 4563.24 4370.58 4567.73C4367.85 4577.96 4364.82 4588.1 4361.66 4599.17C4356.09 4599.64 4350.93 4600.45 4345.77 4600.45C4231.79 4600.48 4117.8 4600.43 4001.77 4598.5C3997.32 4576.06 3993.57 4555.81 3984.08 4537.2C3959.83 4489.65 3922.28 4460.62 3867.66 4460.23C3749.38 4459.38 3631.09 4459.9 3512.8 4460.09C3505.65 4460.1 3498.5 4462.12 3489.88 4463.14C3481.05 4465.35 3473.71 4467.62 3465.07 4470.26C3458.92 4472.53 3453.35 4473.5 3451.77 4479.78C3451.86 4479.89 3451.88 4479.6 3450.6 4479.23C3447.46 4480.51 3445.6 4482.16 3443.84 4483.88C3443.96 4483.94 3443.91 4483.69 3442.7 4483.75C3440.88 4485.13 3440.26 4486.44 3439.77 4487.82C3439.89 4487.88 3439.82 4487.6 3438.5 4487.38C3434.04 4490.1 3430.9 4493.03 3427.88 4495.98C3428.01 4496.01 3428 4495.76 3426.96 4496.07C3425.2 4497.58 3424.48 4498.79 3423.89 4500.01C3424.02 4500.02 3424 4499.76 3422.95 4500.07C3421.2 4501.6 3420.48 4502.81 3419.9 4504.03C3420.03 4504.02 3419.98 4503.77 3418.82 4504.36C3416.97 4507.24 3416.28 4509.54 3415.72 4511.86C3415.86 4511.87 3415.75 4511.62 3414.51 4511.56C3412.74 4512.96 3412.21 4514.42 3411.8 4515.9C3411.93 4515.93 3411.82 4515.69 3410.68 4515.82C3408.94 4517.3 3408.34 4518.65 3407.87 4520C3408 4520 3407.92 4519.76 3406.82 4520.38C3405.04 4523.32 3404.36 4525.64 3403.8 4527.95C3403.93 4527.95 3403.79 4527.73 3402.55 4528.19C3400.76 4531.07 3400.21 4533.51 3399.79 4535.94C3399.92 4535.94 3399.74 4535.74 3398.4 4536.26C3393.98 4544.11 3389.92 4551.21 3388.02 4558.84C3384.67 4572.37 3382.64 4586.22 3380.05 4599.94Z" fill="#B5C3C3"/>
<path d="M4221.8 1910.16C4071.33 1789.11 3900.44 1726.93 3708.3 1720.44C3707.61 1715.79 3706.55 1712.01 3706.54 1708.23C3706.45 1626.94 3706.46 1545.64 3706.51 1464.35C3706.51 1461.08 3707.09 1457.81 3707.49 1453.47C3712.16 1452.93 3716.61 1451.95 3721.06 1451.98C3759.76 1452.29 3798.27 1455.86 3836.56 1460.96C3913.34 1471.18 3988.4 1488.88 4061.37 1515.13C4274.92 1591.98 4449.33 1721.71 4584.47 1903.82C4681.61 2034.71 4745.72 2180.65 4778.44 2340.27C4791.17 2402.37 4798.36 2465.21 4799.97 2528.63C4800.13 2535.13 4799.74 2541.65 4799.58 2548.93C4793.82 2549.52 4789.3 2550.31 4784.78 2550.4C4679.24 2552.45 4550.79 2551.43 4531.96 2548.26C4521.8 2291.21 4420.89 2077.51 4221.8 1910.16Z" fill="#B5C3C3"/>
<path d="M3119.73 1610.59C3124.54 1607.16 3129.1 1603.3 3134.19 1600.36C3242.46 1537.92 3357.81 1494.52 3480.72 1471.27C3540.42 1459.98 3600.56 1453.17 3661.31 1451.9C3666.63 1451.79 3671.96 1451.94 3677.27 1452.17C3678.48 1452.22 3679.64 1453.11 3682.12 1454.17C3684.59 1475.28 3682.9 1497.15 3683.2 1518.93C3683.52 1541.59 3683.27 1564.25 3683.27 1586.91C3683.27 1608.9 3683.49 1630.9 3683.21 1652.89C3682.93 1674.72 3684.48 1696.63 3681.98 1719.79C3627.53 1722.6 3573.89 1726.78 3521.07 1737.83C3467.47 1749.05 3415.31 1764.86 3364.82 1786.09C3314.92 1807.05 3267.48 1832.57 3222.54 1862.73C3177.58 1892.9 3135.91 1927.07 3097.51 1965.25C3059.12 2003.42 3024.74 2044.93 2994.32 2089.72C2963.54 2135.04 2937.39 2182.9 2916 2233.35C2894.89 2283.15 2878.9 2334.54 2867.47 2387.43C2856.04 2440.28 2851.42 2493.9 2848.87 2548.89C2844.04 2549.5 2840.28 2550.37 2836.53 2550.38C2755.89 2550.46 2675.24 2550.47 2594.6 2550.37C2590.11 2550.37 2585.61 2549.32 2580.93 2548.74C2580.93 2531.85 2580.12 2515.89 2581.07 2500.02C2585.9 2420 2598.26 2341.17 2619.96 2263.9C2640.92 2189.29 2668.67 2117.37 2708.06 2048.34C2725.8 2054.13 2741.17 2058.23 2757.46 2055.89C2766.62 2054.56 2775.8 2052.66 2784.66 2049.97C2820.08 2039.24 2851.59 2020.72 2881.61 1999.59C2939.13 1959.09 2988.76 1910.14 3032.86 1855.6C3065.58 1815.14 3094.15 1771.95 3114.35 1723.63C3121.84 1705.72 3126.89 1687.19 3130.52 1668.21C3134.47 1647.61 3129.08 1628.72 3119.73 1610.59Z" fill="#B5C3C3"/>
<path d="M3329.52 3671.56C3330.28 3665.79 3332.22 3659.99 3335.62 3655.23C3356.13 3626.54 3376.73 3597.89 3397.78 3569.59C3421.33 3537.93 3452.99 3519.72 3492.41 3517C3505.48 3516.1 3518.88 3518.81 3532.02 3520.61C3558.38 3524.2 3584.92 3526 3611.32 3528.84C3647.93 3532.78 3684.47 3532.2 3721.01 3531.46C3750.19 3530.87 3779.3 3527.25 3808.46 3525.17C3839.04 3522.98 3869.14 3517.61 3899.34 3512.66C3940.82 3505.86 3981.38 3495.27 4021.73 3483.89C4072.41 3469.6 4122.13 3452.21 4169.87 3430.06C4210.3 3411.31 4249.97 3390.79 4289.23 3369.69C4345.08 3339.68 4396.98 3303.48 4446.9 3264.53C4468.39 3247.76 4488.77 3229.57 4509.91 3212.35C4540.98 3187.05 4568.12 3157.68 4596.37 3129.47C4627.97 3097.92 4656.25 3063.44 4683.73 3028.32C4696.43 3012.07 4708.35 2995.21 4720.94 2978.88C4724.1 2974.79 4728.5 2971.66 4733.65 2967.85C4733.77 2975.45 4733.05 2983.39 4731.29 2991.09C4687.52 3182.64 4643.58 3374.14 4599.85 3565.69C4594.25 3590.23 4584.69 3612.59 4567.27 3631.03C4542.28 3657.48 4511.66 3671.67 4475.05 3672.27C4469.72 3672.36 4464.39 3672.31 4459.05 3672.31C4090.49 3672.31 3721.92 3672.31 3353.36 3672.3C3346.03 3672.3 3338.7 3672.11 3329.52 3671.56Z" fill="#85A4A3"/>
<path d="M5187.61 5187.52C5190.42 5182.27 5193.03 5176.89 5196.08 5171.78C5244.65 5090.69 5275.03 5003.22 5288.63 4909.76C5300.52 4828.06 5299.68 4746.4 5289.15 4664.65C5276.38 4565.63 5250.27 4470.2 5212.74 4377.79C5210.77 4372.95 5209.13 4367.97 5207.59 4363.75C5210.66 4358.23 5215.02 4359.43 5218.61 4359.68C5273.08 4363.54 5318.4 4386.3 5355.05 4426.49C5371.38 4444.4 5383.64 4464.98 5392.51 4487.5C5415.2 4545.13 5438.28 4602.61 5460.16 4660.54C5507.58 4786.06 5542.64 4915.27 5569.83 5046.44C5589.48 5141.21 5570.05 5229.09 5508.72 5307.81C5489.39 5306.5 5472.85 5305.17 5456.46 5302.84C5389.53 5293.34 5325.84 5273.71 5266.31 5241.24C5238.27 5225.95 5211.47 5208.9 5187.61 5187.52Z" fill="#B5C3C3"/>
<path d="M4979.41 4411.1C5004.45 4404.46 5029.46 4397.7 5054.54 4391.21C5086.74 4382.86 5118.98 4374.66 5151.25 4366.56C5160.18 4364.31 5169.26 4362.66 5178.93 4360.59C5181.88 4366.18 5184.66 4370.62 5186.66 4375.4C5220.68 4456.75 5245.59 4540.75 5260.41 4627.75C5268.36 4674.45 5273.14 4721.45 5274.07 4768.76C5276.85 4911.04 5247.04 5045.03 5168.98 5167.62C5160.86 5163.71 5154.46 5159.95 5149.48 5154.8C5112.73 5116.79 5082.28 5074.43 5058.98 5026.71C5033.71 4974.93 5022.16 4920.24 5020.21 4863.12C5019.62 4845.85 5020.09 4828.52 5019.05 4811.28C5017.12 4779.49 5014.41 4747.74 5012.08 4715.98C5010.37 4692.8 5009.28 4669.57 5006.95 4646.46C5003.95 4616.74 5000.04 4587.11 4996.39 4557.47C4992.66 4527.16 4988.59 4496.89 4985 4466.56C4982.82 4448.11 4981.26 4429.59 4979.41 4411.1ZM5158.69 4404.63C5154.4 4396.29 5149.48 4388.47 5140.95 4383.73C5133.02 4379.33 5124.99 4381.56 5120.7 4389.5C5119.45 4391.81 5118.48 4394.35 5117.81 4396.89C5113.22 4414.23 5122.68 4441.91 5136.81 4452.77C5147.73 4461.18 5159.51 4457.63 5163.19 4444.59C5164.25 4440.81 5164.99 4436.63 5164.5 4432.81C5163.41 4424.33 5161.46 4415.97 5158.69 4404.63Z" fill="#B5C3C3"/>
<path d="M2533.09 4800.59C2537.53 4821.93 2534.43 4843.28 2530.82 4864.09C2517.65 4940.18 2502.93 5016 2489.45 5092.03C2480.74 5141.12 2459.46 5184.33 2429.35 5223.29C2378.89 5288.6 2312.58 5329.2 2232.03 5346.65C2226.26 5347.9 2220.26 5348.13 2213.83 5348.9C2209.08 5343.83 2204.4 5339.17 2200.11 5334.17C2149.49 5275.09 2118.62 5206.65 2104.32 5130.51C2093.42 5072.45 2093.02 5014.03 2098.7 4955.37C2106.59 4874 2127.03 4795.6 2153.81 4718.66C2156.62 4710.56 2159.93 4702.63 2165.57 4693.53C2174.02 4691.5 2179.97 4690.88 2185.77 4689.56C2209.12 4684.21 2232.94 4682.03 2256.69 4680.6C2283.26 4679.01 2309.7 4683.02 2335.64 4688.45C2403.44 4702.66 2462.97 4732.96 2512.53 4781.97C2519.1 4788.46 2526.22 4794.39 2533.09 4800.59ZM2309.18 5191.56C2312.77 5193.01 2316.26 5195.37 2319.97 5195.78C2340.5 5198.04 2359.61 5193.6 2377.34 5182.86C2400.69 5168.72 2418.82 5149.21 2432.44 5126.05C2465.6 5069.67 2479.56 5009.22 2468.05 4943.91C2463.94 4920.6 2455.66 4899 2442.21 4879.55C2422.94 4851.67 2395.94 4840.78 2362.65 4844.25C2357.65 4844.77 2353.72 4846.7 2348.77 4852.1C2337.44 4851.06 2328.25 4855.97 2319.41 4862.3C2293.39 4880.94 2275.02 4905.84 2260.86 4934.05C2243.97 4967.71 2235.14 5003.64 2232.78 5041.09C2230.96 5069.85 2234.55 5098.08 2244.25 5125.3C2251.01 5144.27 2260.92 5161.34 2275.81 5175.3C2284.86 5183.79 2294.79 5189.68 2309.18 5191.56Z" fill="#B5C3C3"/>
<path d="M4977.82 4411.05C4981.26 4429.59 4982.82 4448.11 4985 4466.56C4988.59 4496.89 4992.66 4527.16 4996.39 4557.47C5000.04 4587.11 5003.95 4616.74 5006.95 4646.46C5009.28 4669.57 5010.37 4692.8 5012.08 4715.98C5014.41 4747.74 5017.12 4779.49 5019.05 4811.28C5020.09 4828.52 5019.62 4845.85 5020.21 4863.12C5022.16 4920.24 5033.71 4974.93 5058.98 5026.71C5082.28 5074.43 5112.73 5116.79 5149.48 5154.8C5154.46 5159.95 5160.86 5163.71 5168.02 5168.56C5155.34 5194.84 5137.29 5217.9 5118.8 5240.6C5092.25 5273.19 5063.02 5303.21 5030.42 5330.98C5028.03 5329.67 5025.47 5328.87 5023.73 5327.21C4978.68 5284.4 4946.92 5233.7 4933.92 5172.43C4930.62 5156.89 4929.06 5140.8 4928.43 5124.9C4922.42 4972.2 4905.25 4820.91 4871.93 4671.64C4866.13 4645.67 4859.12 4619.96 4852.69 4594.12C4841.58 4549.45 4849.15 4508.15 4875.88 4470.72C4894.69 4444.37 4920.19 4426.83 4951.02 4417.19C4959.26 4414.61 4967.81 4413.03 4977.82 4411.05Z" fill="#85A3A2"/>
<path d="M3707.26 5246.04C3712.72 5239.96 3718.1 5236.01 3722.82 5231.39C3738.52 5215.99 3754.06 5200.44 3769.5 5184.79C3796.37 5157.58 3826.32 5134.35 3860.16 5116.62C3875.43 5108.63 3891.8 5102.59 3908.02 5096.59C3931.75 5087.81 3955.89 5080.15 3979.67 5071.48C4029.31 5053.38 4075.93 5029.2 4120.61 5001.08C4159.03 4976.9 4195 4949.42 4229.21 4919.69C4242.77 4907.91 4254.92 4894.53 4267.94 4882.13C4273.19 4877.14 4279.08 4872.81 4286.01 4867.95C4287.38 4869.69 4287.9 4871.8 4287.39 4873.62C4277.57 4908.16 4269.18 4943.2 4257.47 4977.1C4186.4 5182.84 4011.09 5333.15 3796.55 5372.68C3771.09 5377.37 3745.13 5379.32 3719.38 5382.35C3716.25 5382.72 3712.98 5381.95 3710.52 5381.76C3705.26 5375.72 3706.93 5369.45 3706.9 5363.68C3706.76 5325.08 3706.85 5286.47 3707.26 5246.04Z" fill="#85A3A2"/>
<path d="M2131.39 4709.65C2120.28 4747.29 2108.07 4784.65 2098.29 4822.64C2078.09 4901.1 2067.96 4980.88 2072.3 5062.04C2076.42 5138.89 2094.36 5212.15 2132.84 5279.37C2144.05 5298.95 2157.79 5317.09 2170.48 5335.81C2173.44 5340.18 2176.85 5344.24 2179.87 5348.21C2177.37 5354.99 2171.93 5352.87 2167.76 5352.84C2054.86 5351.99 1964.39 5306.05 1896.47 5216.24C1869.24 5180.24 1850.88 5139.72 1842.6 5093.32C1845.6 5088.49 1847.73 5085.89 1849.1 5082.94C1868.98 5040.11 1888.8 4997.26 1908.56 4954.38C1916.07 4938.07 1923.83 4921.85 1930.72 4905.28C1963.92 4825.45 2019.28 4765.64 2094.15 4723.3C2105.8 4716.71 2117.94 4711.37 2131.39 4709.65Z" fill="#B5C3C3"/>
<path d="M4419.24 2972.58C4421.64 2980.54 4416.3 2986.2 4412.66 2992.37C4389.91 3030.93 4363.95 3067.24 4335.2 3101.51C4258.72 3192.67 4167.12 3264.71 4060.28 3317.1C3974.54 3359.14 3884.16 3385.77 3789.21 3396.69C3753.44 3400.8 3717.59 3403.72 3681.55 3403.08C3569.65 3401.09 3461.86 3379.22 3358.93 3334.94C3254.75 3290.12 3163.13 3226.85 3084.38 3145.21C3039.79 3098.99 3000.74 3048.41 2968.13 2992.99C2964.78 2987.29 2962.17 2981.15 2959.37 2973.75C2967.57 2973.99 2970.79 2981.26 2975.37 2986.66C3000.85 3016.67 3028.28 3044.79 3057.23 3071.4C3142.05 3149.33 3238.36 3209.02 3345.3 3251.58C3421.84 3282.04 3501.22 3301.68 3582.99 3311.03C3646.66 3318.31 3710.53 3318.95 3774.44 3312.98C3977.97 3293.98 4156.4 3216.5 4310.45 3082.62C4342.14 3055.09 4371.54 3025.09 4398.9 2993.17C4404.94 2986.12 4411.53 2979.53 4419.24 2972.58Z" fill="#547A7B"/>
<path d="M3118.3 1610.88C3129.08 1628.72 3134.47 1647.61 3130.52 1668.21C3126.89 1687.19 3121.84 1705.72 3114.35 1723.63C3094.15 1771.95 3065.58 1815.14 3032.86 1855.6C2988.76 1910.14 2939.13 1959.09 2881.61 1999.59C2851.59 2020.72 2820.08 2039.24 2784.66 2049.97C2775.8 2052.66 2766.62 2054.56 2757.46 2055.89C2741.17 2058.23 2725.8 2054.13 2709.34 2047.85C2709.55 2043.01 2710.75 2037.73 2713.25 2033.17C2809 1858.24 2941.75 1718.39 3111.44 1613.64C3113.12 1612.6 3115.06 1611.98 3118.3 1610.88Z" fill="#FDFDFD"/>
<path d="M2644.66 2969.24C2651.67 2968.39 2655.32 2973.29 2658.68 2978.26C2681.88 3012.52 2708.66 3043.98 2734.96 3075.8C2748.1 3091.7 2762 3107.03 2776.31 3121.88C2810.07 3156.89 2844.81 3190.9 2881.26 3223.16C2897.6 3237.62 2907.97 3256.15 2914.3 3277.02C2925.5 3313.95 2919.27 3348.29 2898.4 3380.05C2887.81 3396.18 2875.89 3411.44 2864.53 3427.07C2841.43 3458.87 2818.45 3490.76 2795.07 3522.36C2790.43 3528.63 2787.08 3536.45 2777.62 3539.83C2774.67 3535.8 2772.53 3531.66 2771.52 3527.26C2747.64 3423.53 2723.87 3319.78 2700.1 3216.02C2681.97 3136.91 2663.85 3057.8 2645.76 2978.68C2645.16 2976.09 2644.83 2973.45 2644.66 2969.24Z" fill="#85A3A2"/>
<path d="M2132.02 4708.68C2117.94 4711.37 2105.8 4716.71 2094.15 4723.3C2019.28 4765.64 1963.92 4825.45 1930.72 4905.28C1923.83 4921.85 1916.07 4938.07 1908.56 4954.38C1888.8 4997.26 1868.98 5040.11 1849.1 5082.94C1847.73 5085.89 1845.6 5088.49 1842.64 5091.83C1834.68 5076.11 1834.04 5058.62 1832.9 5041.49C1829.27 4987.42 1838.39 4935.35 1860.78 4885.88C1890.42 4820.42 1919.41 4754.64 1950.41 4689.83C1999.22 4587.76 2080.93 4529.5 2192.63 4513.07C2199.72 4512.02 2206.99 4512.27 2215.73 4511.85C2210.45 4531.04 2200.16 4545.9 2193.09 4562.16C2186.19 4578.02 2178.61 4593.59 2171.72 4609.45C2164.55 4625.92 2157.63 4642.5 2151 4659.19C2144.62 4675.26 2138.75 4691.54 2132.02 4708.68Z" fill="#84A3A2"/>
<path d="M2925.58 3671.64C2931.73 3659.07 2939.3 3646.58 2947.83 3634.8C2999.76 3563.15 3051.9 3491.66 3103.98 3420.13C3108.68 3413.68 3113.3 3407.15 3118.25 3400.89C3125.43 3391.81 3128.57 3391.12 3138.55 3396.32C3176.35 3416.01 3215.41 3432.92 3254.83 3449.02C3264.69 3453.05 3274.8 3456.42 3284.66 3460.41C3287.61 3461.6 3290.11 3463.89 3293.55 3466.16C3291.6 3470.27 3290.45 3474.11 3288.23 3477.16C3262.44 3512.7 3236.45 3548.09 3210.58 3583.57C3192.95 3607.77 3175.32 3631.96 3157.93 3656.33C3155.32 3659.99 3154.06 3664.6 3152.12 3670.19C3150.1 3671.85 3148.13 3672.31 3146.17 3672.3C3073.26 3672.25 3000.34 3672.15 2925.58 3671.64Z" fill="#85A4A3"/>
<path d="M2533.43 4798.99C2526.22 4794.39 2519.1 4788.46 2512.53 4781.97C2462.97 4732.96 2403.44 4702.66 2335.64 4688.45C2309.7 4683.02 2283.26 4679.01 2256.69 4680.6C2232.94 4682.03 2209.12 4684.21 2185.77 4689.56C2179.97 4690.88 2174.02 4691.5 2166.49 4692.39C2166.04 4687.89 2166.82 4683.28 2168.48 4679.01C2188.96 4626.21 2212.29 4574.69 2238.51 4524.49C2240.63 4520.44 2243.27 4516.66 2245.45 4513.12C2375.8 4514.06 2522.9 4624.89 2533.43 4798.99Z" fill="#84A3A2"/>
<path d="M5186.52 5188.31C5211.47 5208.9 5238.27 5225.95 5266.31 5241.24C5325.84 5273.71 5389.53 5293.34 5456.46 5302.84C5472.85 5305.17 5489.39 5306.5 5507.65 5308.59C5508.16 5311.19 5507.18 5313.74 5505.55 5315.75C5467.11 5362.97 5418.95 5395.92 5360.69 5413.87C5355.13 5415.58 5349.27 5416.33 5342.44 5417.76C5340.13 5410.23 5338.02 5404.04 5336.35 5397.73C5332.25 5382.3 5328.78 5366.7 5324.29 5351.4C5314.68 5318.57 5287.16 5301.65 5253.62 5308.62C5233.46 5312.8 5213.51 5318.18 5193.73 5323.96C5163.9 5332.68 5148.25 5356.28 5150.71 5387.38C5151.07 5391.96 5151.64 5396.51 5152.24 5402.33C5148.89 5402.33 5146.31 5402.99 5144.26 5402.23C5111.58 5390.2 5081.25 5373.82 5053.63 5352.55C5052.15 5351.42 5051.21 5349.58 5049.33 5347.18C5051.51 5344.7 5053.36 5342.08 5055.68 5340.01C5105.62 5295.45 5148.89 5245.17 5186.52 5188.31Z" fill="#84A3A2"/>
<path d="M3271.85 5217.76C3280.84 5215.5 3286.2 5208.28 3292.25 5202.25C3327.58 5167.04 3362.88 5131.79 3398.1 5096.47C3418.17 5076.33 3416.71 5078.38 3441.36 5086.32C3483.2 5099.78 3525.77 5110.2 3569.37 5116.18C3577.09 5117.24 3584.82 5118.3 3592.16 5122.3C3590.06 5130.14 3584.19 5133.84 3579.66 5138.38C3529.41 5188.77 3479.05 5239.04 3428.72 5289.36C3424.96 5293.12 3420.79 5296.6 3417.7 5300.87C3415.09 5304.47 3413.77 5309.02 3411.88 5314.6C3408.88 5314.83 3405.73 5313.86 3402.88 5312.34C3355.3 5286.94 3311.92 5255.66 3271.85 5217.76Z" fill="#85A4A3"/>
<path d="M3383.75 4625.91C3383.75 4625.91 3384.01 4625.97 3384.01 4626.1C3384.12 4618.82 3384.22 4611.41 3384.49 4600.75C3387.47 4577.71 3391.17 4558.16 3399.14 4539.67C3399.65 4538.49 3399.56 4537.06 3399.74 4535.74C3399.74 4535.74 3399.92 4535.94 3400.64 4535.12C3402.17 4532.11 3402.98 4529.92 3403.79 4527.73C3403.79 4527.73 3403.93 4527.95 3404.74 4527.19C3406.34 4524.21 3407.13 4521.98 3407.92 4519.76C3407.92 4519.76 3408 4520 3408.85 4519.61C3410.4 4518.04 3411.11 4516.86 3411.82 4515.69C3411.82 4515.69 3411.93 4515.93 3412.69 4515.41C3414.22 4513.81 3414.98 4512.71 3415.75 4511.62C3415.75 4511.62 3415.86 4511.87 3416.62 4511.07C3418.25 4508.1 3419.11 4505.94 3419.98 4503.77C3419.98 4503.77 3420.03 4504.02 3420.93 4503.69C3422.55 4502.15 3423.27 4500.95 3424 4499.76C3424 4499.76 3424.02 4500.02 3424.91 4499.68C3426.54 4498.14 3427.27 4496.95 3428 4495.76C3428 4495.76 3428.01 4496.01 3429.15 4495.84C3433.47 4492.99 3436.64 4490.3 3439.82 4487.6C3439.82 4487.6 3439.89 4487.88 3440.72 4487.43C3442.34 4485.88 3443.12 4484.79 3443.91 4483.69C3443.91 4483.69 3443.96 4483.94 3445.03 4483.77C3448.03 4482.26 3449.96 4480.93 3451.88 4479.6C3451.88 4479.6 3451.86 4479.89 3453.08 4479.61C3457.64 4478.28 3460.99 4477.22 3464.89 4477.71C3466.29 4485.82 3467.86 4492.38 3467.88 4498.94C3468.06 4568.82 3467.95 4638.7 3468.04 4708.59C3468.05 4717.36 3466.96 4725.83 3462.05 4733.65C3457.64 4732.96 3454.7 4732.56 3451.76 4732.15C3451.76 4732.15 3451.98 4732.04 3451.57 4731.2C3449.99 4729.66 3448.81 4728.96 3447.63 4728.26C3447.63 4728.26 3447.87 4728.13 3447.08 4727.37C3444.11 4725.79 3441.92 4724.97 3439.74 4724.15C3439.74 4724.15 3439.96 4724.04 3439.57 4723.19C3438.01 4721.62 3436.84 4720.9 3435.68 4720.18C3435.68 4720.18 3435.92 4720.07 3435.44 4719.29C3433.85 4717.74 3432.75 4716.98 3431.64 4716.22C3431.64 4716.22 3431.9 4716.08 3431.36 4715.34C3429.76 4713.81 3428.7 4713.01 3427.64 4712.21C3427.64 4712.21 3427.9 4712.1 3427.35 4711.36C3425.75 4709.81 3424.69 4709.01 3423.64 4708.21C3423.64 4708.21 3423.9 4708.1 3423.35 4707.35C3421.76 4705.8 3420.71 4704.99 3419.66 4704.18C3419.66 4704.18 3419.92 4704.09 3419.43 4703.28C3417.86 4701.69 3416.77 4700.91 3415.68 4700.13C3415.68 4700.13 3415.93 4700.07 3415.52 4699.2C3413.98 4697.57 3412.86 4696.8 3411.73 4696.03C3411.73 4696.03 3411.98 4696.02 3411.82 4694.95C3410.31 4691.95 3408.98 4690.03 3407.64 4688.11C3407.64 4688.11 3407.9 4688.1 3407.46 4687.25C3405.92 4685.6 3404.83 4684.81 3403.73 4684.01C3403.73 4684.01 3403.98 4684.02 3403.9 4682.76C3402.58 4676.12 3400.63 4671.17 3395.71 4667.98C3395.71 4667.98 3395.96 4668 3395.9 4666.52C3391.81 4652 3387.78 4638.96 3383.75 4625.91Z" fill="#1562BD"/>
<path d="M3491.35 4463.2C3498.5 4462.12 3505.65 4460.1 3512.8 4460.09C3631.09 4459.9 3749.38 4459.38 3867.66 4460.23C3922.28 4460.62 3959.83 4489.65 3984.08 4537.2C3993.57 4555.81 3997.32 4576.06 3999.92 4598.24C3994.36 4606.51 3996.58 4614.5 3996.55 4623.75C3993.14 4687.45 3943.86 4741.28 3881.33 4748.15C3878.2 4747.24 3877.6 4746.92 3875.93 4746.1C3866.47 4745.3 3858.08 4745.03 3848.37 4743.73C3842.06 4740.44 3837.07 4738.17 3833.71 4736.02C3846.25 4737.28 3857.15 4738.43 3869.56 4739.75C3877.13 4740.3 3883.07 4740.17 3888.77 4735.56C3889.64 4735.43 3891.38 4735.38 3892.9 4735.31C3897 4734.58 3899.58 4733.92 3902.16 4733.27C3917.59 4729.41 3926.85 4720.05 3932.78 4704.85C3945.53 4672.17 3952.66 4639.09 3952.55 4603.68C3952.46 4571.68 3945.97 4541.68 3935.39 4511.97C3927.23 4489.07 3912.5 4474.92 3886.28 4472.82C3883.29 4472.57 3881.59 4472.37 3878.67 4471.33C3870.61 4469.7 3863.78 4468.91 3855.5 4467.18C3846.14 4465.61 3838.22 4464.43 3830.3 4464.42C3741.66 4464.28 3653.02 4464.31 3564.38 4464.37C3556.39 4464.38 3548.41 4464.93 3538.55 4464.97C3521.91 4464.61 3507.14 4464.49 3492.12 4464.08C3491.86 4463.79 3491.35 4463.2 3491.35 4463.2Z" fill="#565557"/>
<path d="M3083.66 4857.64C3086.61 4857.69 3089.95 4858.85 3092.09 4861.14C3113.42 4883.87 3135.26 4906.05 3159.36 4925.91C3165.49 4930.95 3170.9 4936.86 3176.67 4942.34C3196.56 4961.24 3194.77 4987.47 3178.22 5006.65C3168.31 5018.15 3156.61 5028.11 3144.53 5039.45C3140.19 5034.39 3136.61 5028.82 3133.93 5022.84C3120.59 4993.06 3109.99 4962.28 3101.75 4930.71C3095.54 4906.93 3089.57 4883.08 3083.66 4857.64Z" fill="#84A3A2"/>
<path d="M3585.14 5373.67C3586.68 5369.22 3589.2 5365.29 3592.41 5362.06C3618.42 5335.87 3644.54 5309.78 3670.71 5283.75C3673.49 5280.98 3676.79 5278.74 3681.08 5275.88C3682.71 5290.78 3683.26 5306.06 3683.45 5321.35C3683.65 5336.67 3683.58 5351.99 3683.43 5367.3C3683.38 5371.8 3682.66 5376.29 3682.29 5380.43C3662.39 5384.63 3640.39 5383.19 3585.14 5373.67Z" fill="#84A3A2"/>
<path d="M3398.4 4536.26C3399.56 4537.06 3399.65 4538.49 3399.14 4539.67C3391.17 4558.16 3387.47 4577.71 3384.08 4598.95C3383.5 4600.41 3381.73 4600.49 3380.89 4600.21C3382.64 4586.22 3384.67 4572.37 3388.02 4558.84C3389.92 4551.21 3393.98 4544.11 3398.4 4536.26Z" fill="#565557"/>
<path d="M5571.98 5503.97C5571.95 5503.93 5572.53 5503.12 5572.53 5503.12C5572.53 5503.12 5572.54 5503.79 5572.3 5503.92C5572.07 5504.05 5572 5504 5571.98 5503.97Z" fill="black"/>
<path d="M4217.71 4677.64C4234.34 4664.65 4252.04 4664.85 4269.83 4668.78C4275.95 4670.13 4281.98 4674.03 4286.9 4678.14C4293.81 4683.91 4293.28 4692.6 4286.69 4698.96C4284.81 4700.77 4282.71 4702.55 4280.38 4703.67C4261.29 4712.89 4242.02 4712.94 4223.32 4703.02C4219.08 4700.77 4215.77 4695.81 4213.34 4691.37C4210.86 4686.85 4213.81 4682.5 4217.71 4677.64Z" fill="#0A1E20"/>
<path d="M3110.69 4670.01C3123.86 4665.96 3135.78 4665.7 3147.72 4668.03C3155.7 4669.58 3163.02 4672.7 3168.48 4679.1C3173.27 4684.7 3173.68 4692.02 3168.5 4697.18C3164.82 4700.85 3160.33 4704.27 3155.55 4706.13C3140.73 4711.88 3125.5 4711.8 3110.57 4706.43C3106.29 4704.89 3102.15 4702.26 3098.69 4699.27C3091.64 4693.17 3091.22 4684.81 3097.76 4678.29C3100.96 4675.1 3105.41 4673.15 3110.69 4670.01Z" fill="#0A1E20"/>
<path d="M3452.47 4733.38C3454.7 4732.56 3457.64 4732.96 3463.25 4734.39C3469.53 4736.85 3473.14 4738.25 3476.74 4739.69C3492.19 4745.86 3508.61 4744.11 3526.16 4745.98C3534.34 4746.5 3540.98 4746.87 3547.63 4746.87C3657.42 4746.81 3767.2 4746.71 3876.99 4746.61C3877.6 4746.92 3878.2 4747.24 3879.72 4748.01C3873.38 4749.1 3866.13 4750.24 3858.87 4750.25C3745.94 4750.36 3633.01 4750.31 3520.08 4750.33C3496.53 4750.33 3473.7 4747.44 3452.47 4733.38Z" fill="#565557"/>
<path d="M3383.52 4627.67C3387.78 4638.96 3391.81 4652 3395.85 4666.64C3386.94 4656.83 3385.09 4643.14 3383.52 4627.67Z" fill="#565557"/>
<path d="M3395.65 4669.35C3400.63 4671.17 3402.58 4676.12 3403.85 4682.88C3401.12 4679.73 3398.35 4675.23 3395.65 4669.35Z" fill="#565557"/>
<path d="M3440.23 4725.37C3441.92 4724.97 3444.11 4725.79 3447.08 4727.5C3445.49 4727.8 3443.11 4727.2 3440.23 4725.37Z" fill="#565557"/>
<path d="M3407.4 4689.37C3408.98 4690.03 3410.31 4691.95 3411.78 4695.06C3410.32 4694.38 3408.74 4692.51 3407.4 4689.37Z" fill="#565557"/>
<path d="M3403.84 4685.19C3404.83 4684.81 3405.92 4685.6 3407.4 4687.36C3406.51 4687.68 3405.23 4687.02 3403.84 4685.19Z" fill="#565557"/>
<path d="M3447.63 4729.47C3448.81 4728.96 3449.99 4729.66 3451.56 4731.32C3450.51 4731.75 3449.07 4731.22 3447.63 4729.47Z" fill="#565557"/>
<path d="M3435.78 4721.34C3436.84 4720.9 3438.01 4721.62 3439.55 4723.32C3438.58 4723.69 3437.23 4723.1 3435.78 4721.34Z" fill="#565557"/>
<path d="M3431.62 4717.44C3432.75 4716.98 3433.85 4717.74 3435.4 4719.42C3434.43 4719.77 3433.01 4719.22 3431.62 4717.44Z" fill="#565557"/>
<path d="M3427.58 4713.46C3428.7 4713.01 3429.76 4713.81 3431.31 4715.48C3430.37 4715.81 3428.95 4715.26 3427.58 4713.46Z" fill="#565557"/>
<path d="M3423.57 4709.46C3424.69 4709.01 3425.75 4709.81 3427.3 4711.49C3426.36 4711.81 3424.94 4711.27 3423.57 4709.46Z" fill="#565557"/>
<path d="M3419.63 4705.42C3420.71 4704.99 3421.76 4705.8 3423.3 4707.48C3422.39 4707.79 3420.99 4707.23 3419.63 4705.42Z" fill="#565557"/>
<path d="M3415.74 4701.32C3416.77 4700.91 3417.86 4701.69 3419.37 4703.41C3418.47 4703.73 3417.13 4703.13 3415.74 4701.32Z" fill="#565557"/>
<path d="M3411.89 4697.16C3412.86 4696.8 3413.98 4697.57 3415.48 4699.32C3414.58 4699.64 3413.32 4698.97 3411.89 4697.16Z" fill="#565557"/>
<path d="M3466.36 4469.89C3473.71 4467.62 3481.05 4465.35 3489.88 4463.14C3491.35 4463.2 3491.86 4463.79 3492.17 4464.91C3492.49 4466.02 3492.36 4467.68 3490.8 4467.71C3482.15 4469.15 3475.06 4470.54 3467.56 4471.43C3467.16 4470.91 3466.36 4469.89 3466.36 4469.89Z" fill="#565557"/>
<path d="M3464.33 4476.16C3460.99 4477.22 3457.64 4478.28 3452.98 4479.5C3453.35 4473.5 3458.92 4472.53 3465.07 4470.26C3466.36 4469.89 3467.16 4470.91 3467 4472.17C3465.99 4474.33 3465.16 4475.24 3464.33 4476.16Z" fill="#565557"/>
<path d="M3438.5 4487.38C3436.64 4490.3 3433.47 4492.99 3429.03 4495.82C3430.9 4493.03 3434.04 4490.1 3438.5 4487.38Z" fill="#565557"/>
<path d="M3418.82 4504.36C3419.12 4505.94 3418.25 4508.1 3416.49 4511.05C3416.28 4509.54 3416.97 4507.24 3418.82 4504.36Z" fill="#565557"/>
<path d="M3450.6 4479.23C3449.96 4480.93 3448.03 4482.26 3444.92 4483.7C3445.6 4482.16 3447.46 4480.51 3450.6 4479.23Z" fill="#565557"/>
<path d="M3406.82 4520.38C3407.13 4521.98 3406.34 4524.21 3404.61 4527.2C3404.36 4525.64 3405.04 4523.32 3406.82 4520.38Z" fill="#565557"/>
<path d="M3402.55 4528.19C3402.98 4529.92 3402.17 4532.11 3400.51 4535.12C3400.21 4533.51 3400.76 4531.07 3402.55 4528.19Z" fill="#565557"/>
<path d="M3410.68 4515.82C3411.11 4516.86 3410.4 4518.04 3408.72 4519.61C3408.34 4518.65 3408.94 4517.3 3410.68 4515.82Z" fill="#565557"/>
<path d="M3414.51 4511.56C3414.98 4512.71 3414.22 4513.81 3412.56 4515.38C3412.21 4514.42 3412.74 4512.96 3414.51 4511.56Z" fill="#565557"/>
<path d="M3422.95 4500.07C3423.27 4500.95 3422.55 4502.15 3420.8 4503.69C3420.48 4502.81 3421.2 4501.6 3422.95 4500.07Z" fill="#565557"/>
<path d="M3426.96 4496.07C3427.27 4496.95 3426.54 4498.14 3424.78 4499.67C3424.48 4498.79 3425.2 4497.58 3426.96 4496.07Z" fill="#565557"/>
<path d="M3442.7 4483.75C3443.12 4484.79 3442.34 4485.88 3440.6 4487.37C3440.26 4486.44 3440.88 4485.13 3442.7 4483.75Z" fill="#565557"/>
<path d="M5159.28 4406.09C5161.46 4415.97 5163.41 4424.33 5164.5 4432.81C5164.99 4436.63 5164.25 4440.81 5163.19 4444.59C5159.51 4457.63 5147.73 4461.18 5136.81 4452.77C5122.68 4441.91 5113.22 4414.23 5117.81 4396.89C5118.48 4394.35 5119.45 4391.81 5120.7 4389.5C5124.99 4381.56 5133.02 4379.33 5140.95 4383.73C5149.48 4388.47 5154.4 4396.29 5159.28 4406.09Z" fill="#0A1E20"/>
<path d="M2307.67 5188.92C2294.79 5189.68 2284.86 5183.8 2275.81 5175.3C2260.92 5161.34 2251.01 5144.27 2244.25 5125.3C2234.55 5098.08 2230.96 5069.85 2232.78 5041.09C2235.14 5003.64 2243.97 4967.71 2260.86 4934.05C2275.02 4905.84 2293.39 4880.94 2319.41 4862.3C2328.25 4855.97 2337.44 4851.06 2351.44 4852.88C2384.38 4860.69 2404.1 4880.23 2416.5 4907.63C2421.4 4918.45 2425.69 4929.89 2427.94 4941.49C2441.07 5009.34 2428.31 5072.36 2389.74 5129.66C2370.67 5158 2345.65 5179.24 2311.25 5187.22C2310 5187.51 2308.86 5188.34 2307.67 5188.92Z" fill="#0A1E20"/>
<path d="M2308.43 5190.24C2308.86 5188.34 2310 5187.51 2311.25 5187.22C2345.65 5179.24 2370.67 5158 2389.74 5129.66C2428.31 5072.36 2441.07 5009.34 2427.94 4941.49C2425.69 4929.89 2421.4 4918.45 2416.5 4907.63C2404.1 4880.23 2384.38 4860.69 2353.03 4852.71C2353.72 4846.7 2357.65 4844.77 2362.65 4844.25C2395.94 4840.78 2422.94 4851.67 2442.21 4879.55C2455.66 4899 2463.94 4920.6 2468.05 4943.91C2479.56 5009.22 2465.6 5069.67 2432.44 5126.05C2418.82 5149.21 2400.69 5168.72 2377.34 5182.86C2359.61 5193.6 2340.5 5198.04 2319.97 5195.78C2316.26 5195.37 2312.77 5193.01 2308.43 5190.24Z" fill="#84A3A2"/>
<path d="M3464.89 4477.71C3465.16 4475.24 3465.99 4474.33 3467.4 4472.68C3475.06 4470.54 3482.15 4469.15 3492.59 4467.8C3510.57 4467.86 3525.2 4467.87 3539.98 4467.89C3540.13 4467.9 3540.4 4468 3540.29 4469.88C3540.12 4562.57 3540.07 4653.39 3538.49 4744.5C3532.85 4745.07 3528.74 4745.36 3524.63 4745.65C3508.61 4744.11 3492.19 4745.86 3476.74 4739.69C3473.14 4738.25 3469.53 4736.85 3464.72 4734.68C3466.96 4725.83 3468.05 4717.36 3468.04 4708.59C3467.95 4638.7 3468.06 4568.82 3467.88 4498.94C3467.86 4492.38 3466.29 4485.82 3464.89 4477.71Z" fill="#225AC2"/>
<path d="M3540.42 4465.22C3548.41 4464.93 3556.39 4464.38 3564.38 4464.37C3653.02 4464.31 3741.66 4464.28 3830.3 4464.42C3838.22 4464.43 3846.14 4465.61 3853.98 4467.16C3850.12 4469.36 3846.35 4470.66 3841.54 4471.85C3839.14 4471.61 3837.76 4471.46 3834.9 4470.55C3828.85 4469.12 3824.28 4467.9 3819.71 4467.89C3785.19 4467.79 3750.67 4467.93 3716.15 4468.01C3713.5 4468.02 3710.83 4468.04 3708.2 4468.35C3700.62 4469.24 3697.22 4472.21 3696.51 4479.44C3695.93 4485.36 3696.03 4491.37 3696.03 4497.34C3695.99 4579.66 3695.98 4661.97 3694.12 4744.57C3668.16 4744.64 3644.05 4744.44 3619.96 4742.33C3619.98 4659.49 3620.01 4578.53 3619.97 4497.57C3619.96 4490.95 3619.81 4484.3 3619.16 4477.72C3618.64 4472.55 3615.21 4469.35 3610.03 4468.73C3605.43 4468.18 3600.77 4467.99 3596.14 4467.98C3577.56 4467.92 3558.98 4467.98 3540.4 4468C3540.4 4468 3540.13 4467.9 3540.13 4467.22C3540.12 4466.55 3540.42 4465.22 3540.42 4465.22Z" fill="#4146C5"/>
<path d="M3695.97 4744.29C3695.98 4661.98 3695.99 4579.66 3696.03 4497.34C3696.03 4491.37 3695.93 4485.36 3696.51 4479.44C3697.22 4472.21 3700.62 4469.25 3708.2 4468.35C3710.83 4468.04 3713.5 4468.02 3716.15 4468.01C3750.67 4467.93 3785.19 4467.79 3819.71 4467.89C3824.28 4467.9 3828.85 4469.12 3833.72 4471.33C3828.2 4475.46 3822.38 4478.03 3816.32 4480.63C3816.09 4480.66 3815.65 4480.82 3814.81 4481.15C3812.91 4482.09 3812.02 4482.89 3810.04 4484.44C3805.3 4487.84 3801.81 4490.68 3797.4 4494.01C3791.73 4499.17 3786.99 4503.83 3780.97 4509.13C3774.95 4515.18 3769.53 4520.15 3765.62 4526.12C3759.59 4535.32 3752.42 4544.23 3752.08 4556.06C3752 4556.02 3752.1 4556.16 3751.22 4556.77C3750.05 4558.76 3749.77 4560.13 3749.07 4563.01C3740.72 4591.82 3740.69 4619.11 3748.74 4647.66C3749.65 4651.24 3750.7 4653.54 3751.68 4655.98C3751.61 4656.12 3751.89 4656.27 3751.91 4657.38C3753.25 4660.99 3754.56 4663.5 3756.59 4667.99C3758 4671.2 3758.7 4672.42 3759.28 4673.64C3759.17 4673.63 3759.49 4673.8 3760.08 4675.13C3765.82 4683.15 3770.98 4689.86 3776.73 4697.63C3783.39 4704.04 3789.46 4709.37 3796.24 4715.86C3803.03 4720.72 3809.12 4724.43 3815.8 4728.78C3817.29 4730.21 3818.33 4730.69 3819.64 4731.06C3819.78 4731.27 3819.89 4731.74 3820.98 4732.46C3825.42 4734.1 3828.76 4735.01 3832.07 4735.95C3832.03 4735.97 3832.07 4735.9 3832.07 4735.9C3837.07 4738.17 3842.06 4740.44 3845.89 4743.87C3812.32 4745.1 3779.91 4745.26 3747.51 4745.16C3730.33 4745.11 3713.15 4744.6 3695.97 4744.29Z" fill="#523EC3"/>
<path d="M3816.56 4480.61C3822.38 4478.03 3828.2 4475.46 3835.21 4472.1C3837.76 4471.46 3839.14 4471.61 3843.49 4471.95C3857.62 4472.16 3868.75 4472.17 3879.88 4472.18C3881.59 4472.37 3883.29 4472.57 3886.91 4473.98C3905.88 4500.86 3918.91 4528.29 3925.17 4558.61C3929.19 4578.09 3933.63 4597.71 3931.18 4617.72C3926.96 4652.14 3919.34 4685.6 3900.28 4715.48C3896.41 4721.54 3894.3 4728.72 3891.38 4735.38C3891.38 4735.38 3889.64 4735.43 3887.27 4735.5C3878.99 4735.63 3873.05 4735.62 3868.06 4739.58C3857.15 4738.43 3846.25 4737.28 3833.71 4736.02C3832.07 4735.9 3832.03 4735.97 3831.97 4735.11C3831.92 4734.26 3831.89 4732.57 3832.32 4731.27C3833.82 4728.3 3834.59 4726.31 3836 4725.01C3849.86 4712.13 3860.46 4696.9 3868.02 4679.68C3872.55 4669.37 3876.34 4658.69 3879.91 4647.99C3886.74 4627.55 3891.02 4606.89 3884.62 4585.35C3882.73 4578.99 3881.58 4572.37 3880.65 4565.79C3876.48 4536.09 3860.58 4512.71 3841.16 4491.08C3834.46 4483.62 3826.71 4479.52 3816.56 4480.61Z" fill="#888889"/>
<path d="M3892.9 4735.31C3894.3 4728.72 3896.41 4721.54 3900.28 4715.48C3919.34 4685.6 3926.96 4652.14 3931.18 4617.72C3933.63 4597.71 3929.19 4578.09 3925.17 4558.61C3918.91 4528.29 3905.88 4500.86 3888.2 4474.04C3912.5 4474.92 3927.23 4489.07 3935.39 4511.97C3945.97 4541.68 3952.46 4571.68 3952.55 4603.68C3952.66 4639.09 3945.53 4672.17 3932.78 4704.85C3926.85 4720.05 3917.59 4729.41 3902.16 4733.27C3899.58 4733.92 3897 4734.58 3892.9 4735.31Z" fill="#696869"/>
<path d="M3694.12 4744.57C3713.15 4744.6 3730.33 4745.11 3747.51 4745.16C3779.91 4745.26 3812.32 4745.1 3847.2 4744.9C3858.08 4745.03 3866.47 4745.3 3875.93 4746.1C3767.2 4746.71 3657.42 4746.81 3547.63 4746.87C3540.98 4746.87 3534.34 4746.5 3526.16 4745.98C3528.74 4745.36 3532.85 4745.07 3540.34 4744.77C3569.13 4744.58 3594.54 4744.4 3619.95 4744.23C3644.05 4744.44 3668.16 4744.64 3694.12 4744.57Z" fill="#233537"/>
<path d="M3538.55 4464.97C3540.42 4465.22 3540.12 4466.55 3539.98 4467.21C3525.2 4467.87 3510.57 4467.86 3494.15 4467.77C3492.36 4467.68 3492.49 4466.02 3492.43 4465.2C3507.14 4464.49 3521.91 4464.61 3538.55 4464.97Z" fill="#1562BD"/>
<path d="M3878.67 4471.33C3868.75 4472.17 3857.62 4472.16 3844.53 4472.05C3846.35 4470.66 3850.12 4469.36 3855.42 4468.1C3863.78 4468.91 3870.61 4469.7 3878.67 4471.33Z" fill="#696869"/>
<path d="M3869.56 4739.75C3873.05 4735.62 3878.99 4735.63 3886.41 4735.62C3883.07 4740.17 3877.13 4740.3 3869.56 4739.75Z" fill="#696869"/>
<path d="M3619.96 4742.33C3594.54 4744.4 3569.13 4744.58 3541.87 4744.49C3540.07 4653.39 3540.12 4562.57 3540.29 4469.88C3558.98 4467.98 3577.56 4467.92 3596.14 4467.98C3600.77 4467.99 3605.43 4468.18 3610.03 4468.73C3615.21 4469.35 3618.64 4472.55 3619.16 4477.72C3619.81 4484.3 3619.96 4490.95 3619.97 4497.57C3620.01 4578.53 3619.98 4659.49 3619.96 4742.33Z" fill="#3150C4"/>
<path d="M3759.4 4673.64C3758.7 4672.42 3758 4671.2 3756.52 4666.94C3754.46 4661.36 3753.17 4658.82 3751.89 4656.27C3751.89 4656.27 3751.61 4656.12 3751.94 4654.54C3752.44 4651.98 3752.62 4651.02 3754.12 4650.11C3764.77 4649.16 3771.19 4643.76 3775.54 4636C3781.31 4625.69 3787.7 4615.11 3786.19 4602.81C3783.52 4581.22 3773.27 4564.54 3752.15 4556.11C3752.42 4544.23 3759.59 4535.32 3765.62 4526.12C3769.53 4520.15 3774.95 4515.18 3781.75 4510.57C3786.01 4513.84 3787.84 4516.87 3790.5 4518.66C3814.06 4534.51 3825.76 4557.83 3832 4584.48C3833.8 4592.17 3836 4600.32 3835.19 4607.96C3832.71 4631.34 3826.25 4653.56 3811.58 4672.71C3802.38 4684.72 3791.44 4693.8 3776.13 4696.56C3770.98 4689.86 3765.82 4683.15 3760.07 4675.1C3759.46 4673.75 3759.4 4673.64 3759.4 4673.64Z" fill="#B5C3C3"/>
<path d="M3816.32 4480.63C3826.71 4479.52 3834.46 4483.62 3841.16 4491.08C3860.58 4512.71 3876.48 4536.09 3880.65 4565.79C3881.58 4572.37 3882.73 4578.99 3884.62 4585.35C3891.02 4606.89 3886.74 4627.55 3879.91 4647.99C3876.34 4658.69 3872.55 4669.37 3868.02 4679.68C3860.46 4696.9 3849.86 4712.13 3836 4725.01C3834.59 4726.31 3833.82 4728.3 3830.82 4731.14C3825.89 4732.12 3822.89 4731.93 3819.89 4731.74C3819.89 4731.74 3819.78 4731.27 3819.11 4730.37C3817.5 4728.72 3816.41 4728.27 3815.2 4728.14C3809.12 4724.43 3803.03 4720.72 3797.74 4715.9C3804.26 4715.05 3808.59 4712.3 3812.68 4708.62C3826.13 4696.52 3837.14 4682.88 3844.72 4666.11C3862.56 4626.64 3866.77 4587.42 3846.77 4547.36C3835.53 4524.84 3820 4506.49 3798.32 4493.51C3801.81 4490.68 3805.3 4487.84 3810.93 4484.17C3814.23 4482.81 3815.09 4481.97 3815.65 4480.82C3815.65 4480.82 3816.09 4480.66 3816.32 4480.63Z" fill="#9C9C9C"/>
<path d="M3797.4 4494.01C3820 4506.49 3835.53 4524.84 3846.77 4547.36C3866.77 4587.42 3862.56 4626.64 3844.72 4666.1C3837.14 4682.88 3826.13 4696.52 3812.68 4708.62C3808.59 4712.3 3804.26 4715.05 3797.03 4714.74C3789.46 4709.37 3783.39 4704.04 3776.73 4697.63C3791.44 4693.8 3802.38 4684.72 3811.58 4672.71C3826.25 4653.56 3832.71 4631.34 3835.19 4607.96C3836 4600.32 3833.8 4592.17 3832 4584.48C3825.76 4557.83 3814.06 4534.51 3790.5 4518.66C3787.84 4516.87 3786.01 4513.84 3783.02 4509.94C3786.99 4503.83 3791.73 4499.17 3797.4 4494.01Z" fill="#B5C3C3"/>
<path d="M3752.08 4556.06C3773.27 4564.54 3783.52 4581.22 3786.19 4602.81C3787.7 4615.11 3781.31 4625.69 3775.54 4636C3771.19 4643.76 3764.77 4649.16 3753.69 4649.3C3751.16 4647.38 3750.14 4646.69 3748.88 4646.37C3740.69 4619.11 3740.72 4591.82 3750.04 4562.44C3751.65 4558.96 3751.87 4557.56 3752.1 4556.16C3752.1 4556.16 3752 4556.02 3752.08 4556.06Z" fill="#FDFDFD"/>
<path d="M3820.98 4732.46C3822.89 4731.93 3825.89 4732.12 3830.4 4732.44C3831.89 4732.57 3831.92 4734.26 3832.01 4735.09C3828.76 4735.01 3825.42 4734.1 3820.98 4732.46Z" fill="#565557"/>
<path d="M3751.91 4657.38C3753.17 4658.82 3754.46 4661.36 3755.81 4664.95C3754.56 4663.5 3753.25 4660.99 3751.91 4657.38Z" fill="#B5C3C3"/>
<path d="M3748.74 4647.66C3750.14 4646.69 3751.16 4647.38 3752.36 4649.25C3752.62 4651.02 3752.44 4651.99 3752.01 4654.39C3750.7 4653.54 3749.65 4651.24 3748.74 4647.66Z" fill="#B5C3C3"/>
<path d="M3815.8 4728.78C3816.41 4728.27 3817.5 4728.72 3818.98 4730.17C3818.33 4730.69 3817.29 4730.21 3815.8 4728.78Z" fill="#888889"/>
<path d="M3759.28 4673.64C3759.4 4673.64 3759.46 4673.75 3759.47 4673.78C3759.49 4673.8 3759.17 4673.63 3759.28 4673.64Z" fill="#B5C3C3"/>
<path d="M3751.22 4556.77C3751.87 4557.56 3751.65 4558.96 3750.45 4560.93C3749.77 4560.13 3750.05 4558.76 3751.22 4556.77Z" fill="#B5C3C3"/>
<path d="M3814.81 4481.15C3815.09 4481.97 3814.23 4482.81 3812.18 4483.6C3812.02 4482.89 3812.91 4482.09 3814.81 4481.15Z" fill="#888889"/>
</g>
<defs>
<clipPath id="clip0_1_2">
<rect width="7000" height="7000" fill="white"/>
</clipPath>
</defs>
</svg>
