<svg version="1.2" xmlns="http://www.w3.org/2000/svg" viewBox="0 0 1920 1920" width="192" height="192">
	<title>0</title>
	<style>
		.s0 { fill: #0a1e20 } 
		.s1 { fill: #b5c3c3 } 
		.s2 { fill: #233537 } 
		.s3 { fill: #b6c4c4 } 
		.s4 { fill: #85a4a3 } 
		.s5 { fill: #b1c0c0 } 
		.s6 { fill: #54797a } 
		.s7 { fill: #fefefe } 
		.s8 { fill: #e5e6e6 } 
		.s9 { fill: #1761bd } 
		.s10 { fill: #666567 } 
		.s11 { fill: #2757c2 } 
		.s12 { fill: #4e3fc4 } 
		.s13 { fill: #7c7c7c } 
		.s14 { fill: #384cc4 } 
	</style>
	<path class="s0" d="m1569.9 1351.2c11.7 46.5 23.5 92.6 35 138.7 0.9 3.7 0.5 7.9-0.1 11.7-2 12.2-4.8 24.3-6.7 36.5-3.1 19.2-5.7 38.4-8.5 57.6-0.6 3.8-1.2 7.5-1.6 11.3-1.1 11.6-10.7 18.7-22.2 16.5-3.7-0.7-7.5-1.1-11.3-1.5-10.4-1.2-17.4-10.7-15.8-20.9 1-6.3 1.7-12.6 2.6-20-12.3 8.2-21.6 1.3-31-3.7-4.7-2.6-5.8-11.2-3.3-17.4 6.1-15.2 12.1-30.3 18.2-45.4 0.6-1.5 1-3.1 1.9-6-15.9 11.9-32.1 20.1-50.6 24.8 1.3 5.2 2.6 10.3 3.9 15.4 3.3 13.2 6.6 26.4 9.9 39.7 2.2 9-1.7 17.7-10.2 20.8-6.2 2.2-12.8 3.9-19.3 4.5-10.2 0.9-16.3-4.1-18.8-14-5-19.5-10.1-38.9-14.9-58.5-1-4.1-2.8-5.7-7.2-6.5-29.8-5.5-56.1-18-78.1-39.3-18.3-17.7-31.3-38.4-37-63.3-2.3-9.6-2.8-19.6-3.8-29.5-1.7-18.7-2.5-37.4-5-56-3-21.5-6.8-42.9-11.3-64.1-2.6-12.4-6.3-24.5-5.7-37.3 1.1-20.2 8.1-38.1 21-53.9 9.2-11.3 21.1-18.9 34.8-25.2-21.9-19.4-43.7-38.4-67.3-54.9q-0.7 0.4-1.3 0.9c0.4 1.3 0.8 2.6 1.4 3.9 7.5 15.6 8.9 32 4.6 48.5-9.9 37.8-20.4 75.5-30.6 113.2-7.9 29-15.7 58.1-23.6 87.1-8.1 29.6-21.3 56.5-40.7 80.4-18.1 22.5-39.9 40.3-65.1 54.2-1.4 0.8-2.8 2.4-3.4 3.9-9.7 25.3-26.6 44.4-50.5 56.8-13.9 7.2-28.8 10.6-44.7 11-21.3 0.5-40.8-4.7-58.8-15.8-14.6-9-26-21.1-34.5-36-2.9-5-4.8-10.5-7.6-15.6-1.1-1.8-3.1-3.4-5.1-4.4-21.1-11.4-40-25.8-56.1-43.5-25.2-27.9-41.8-60.4-51.2-96.9-14.4-56.7-29.8-113.2-44.7-169.8-3-11.4-5.9-22.9-7.6-34.5-1.1-7 0.2-14.5 0.5-21.7 0.1-1 0.3-1.9 0.5-3.8-28 22.6-51.7 48.4-75.8 72.1 11.1 8.8 22.8 16.4 32.4 26.2 20.4 20.8 32.9 46 36.5 75.3 2.3 18.9 0.5 37.4-3.1 56-3.8 19-6.6 38.3-11.2 57.1-4.6 18.9-14.3 35.7-26.8 50.7-11 13.2-23.8 24.2-38.9 32.3-3.7 2.1-2.6 4.6-0.7 7q8.5 11.7 17.2 23.2c5.6 7.4 11.5 14.7 16.9 22.2 5.2 7.2 2.6 17.9-5.3 23.9-6.1 4.6-15.1 3.5-19.7-2.4-3.3-4.3-6.7-8.7-10-13-7.9-10.5-16-20.8-23.6-31.5-3.2-4.5-5.2-9.8-8.1-15.3-5.3 1-11.6 2.1-18.3 3.4 4 8.5 7.8 16.8 11.7 25 5.5 11.4 11.1 22.8 16.6 34.2 3.9 8.2 1.9 17.6-4.6 22.6-6.3 4.8-16.5 4.8-22.4-1.3-3.8-4.1-6.2-9.7-8.7-14.9q-11-22.4-21.6-45.1c-2.8-6.1-4.5-12.8-7.9-18.7-1.3-2.3-5.5-2.9-9.9-4.9 1.1 8.7 2 15.7 2.8 22.7 1.2 11.4 2.8 22.7 3.4 34.1 0.5 10.1-7.3 17.9-16.8 19-12.4 1.4-21.2-8.6-22.2-17-2.7-23.3-6-46.6-8.7-70-0.6-5.1-4.4-5.5-7.7-8.6-0.6 2.4-1.3 3.9-1.4 5.4-1.1 13.8-2.1 27.5-3.1 41.2-0.7 9.3-6.6 15-16.1 14.8-4.8 0-9.6-0.4-14.3-1.1-8.1-1.2-13.5-9.5-12.5-17.7 1.3-10.5 2-21.1 2.9-31.7 1.3-14.5 2.2-29.1 4-43.5 0.8-6.9-2.2-11.9-5.2-17.2-8.2-14.7-13.5-30.4-15.7-47.1-3.3-25.1-1-49.8 9-73.3 6.6-15.5 13.9-30.6 20.7-46 6.1-13.7 12.5-27.2 22-39 22-27.3 50-44.7 85-49 9.9-1.3 14.3-7.9 20-13.7 4.9-5.1 9.3-10.8 14.2-16 9.9-10.5 19.6-21.4 30.3-31.2 20.6-19 41.8-37.4 62.7-56.1 1.3-1.1 2.6-2.8 2.9-4.4 2.2-13.2 7.7-24.7 16.8-34.4-4.7-6.6-9.4-12.9-13.7-19.6-6.7-10.4-9.2-22.4-11.8-34.2-5.5-24.5-10.8-49-16.2-73.5-10.7-48.6-21.1-97.4-32.3-145.9-5.7-24.8-6.7-49.8-5.5-74.9 2.3-46 12.9-90.2 32.6-132.2 13.5-28.8 30.5-55.2 50.9-79.5 27.3-32.4 59.4-58.9 96.3-79.7 36.5-20.7 75.5-34.7 117.1-40.9 14.2-2.2 28.6-3.1 43-4 44.7-2.9 88.1 4.4 130.2 18.9 37.5 12.9 71.7 31.8 102.7 56.5 22.5 18 42.7 38.4 60.5 61.2 15 19 27.7 39.5 38.3 61.2 15.4 31.4 26.3 64.3 31.1 99 2.1 14.6 2.9 29.4 4.1 44.1 2.3 30.7-1.9 60.9-8.5 90.8-8.8 39.9-18 79.7-27.1 119.5q-10.6 46.4-21.3 92.8c-2.8 12.4-8.9 23.2-16.7 33.1-0.9 1.2-1.4 3.6-0.8 4.7 5.3 9.8 7 20.4 6.3 31.3-0.2 3.6 1.1 6 3.9 8 23.9 17.4 46.7 36.2 68.3 56.4 7.8 7.2 15.6 14.5 23.6 21.4 1.4 1.3 4.2 2 6 1.5 32.6-8.2 62.9-3.1 90.2 16.3 17 12.1 29.2 28.5 36.6 48.2 9.4 25.3 19.2 50.4 27.8 75.9 6.7 20 11.7 40.6 17.6 61.3zm-357.4-537.7c0 0-0.1 0.1-0.7-0.2-1.1 1.1-2.2 2-3.1 3.1-20.2 24.2-43.9 44.2-71.3 59.5-50 28-103.5 38.2-160.3 31.1-29-3.7-56.5-12.3-82.6-25.5-32.7-16.6-60.4-39.2-83.6-67.6-0.5-0.6-1.5-0.9-2.5-1.8-0.2-0.4-0.4-0.7-0.5-1.5-0.3-0.2-0.5-0.5-1.1-1.3-17.4-32.3-25.5-67.1-26.6-103.4-25.1 0-49.5 0-74.7 0 1.3 14 1.8 27.5 4.1 40.7 4 21.9 9.1 43.5 13.7 66.1 9.2 40.3 18.4 80.6 27.7 120.8 2.9 12.6 6.1 25 9.1 38.3 5.1 25 17.6 35.7 41.7 35.1 20.3 0 40.5-0.1 61.7-0.1 15.8 0 31.6 0 48.3 0.1 105 0.1 210 0.1 315 0.1 15.5-0.1 29.5-11.8 33.2-27.5q16-69.5 31.9-138.9c2.1-9.5 4-19.1 6.2-29.4 5.2-25 10.6-50 15.2-75.2 1.8-9.8 1.6-20 2.3-30.5-24.6 0-48.1 0-71.5 0.1-1 0.1-2.7 2.2-2.8 3.5-0.7 5.8-0.7 11.6-1.3 17.4-3 30.2-11.7 58.6-27.1 85.3-0.1 0.5-0.2 1-0.4 1.7zm-708.6 584.3c11.3 47.8 56.7 73 93.2 69.4-0.8-1-1.5-1.9-2.1-2.8-5-8-10.9-15.6-15-24.1-14.7-30.4-16.1-62.7-10.3-95.2 3.3-18.2 9-36.1 14.1-54.6 7.3-17.7 14.7-35.5 22.1-53.4-1.7 0-3.9-0.2-5.9 0.1-27.6 4.1-49.8 17.3-62.9 42.3-11.7 22.4-22.1 45.7-31.4 69.2-6.2 15.4-6.8 32-1.8 49.1zm859.4-188.7c-1 0.3-1.9 0.7-2.9 0.8-22.6 4.5-36.8 28.1-30.6 50.9 12.7 46.6 18.3 94.3 20.5 142.5 0.4 8.8 2.2 17.8 5 26.2 4.4 13 12.6 23.8 22.6 32.6 7.3-7.3 14.8-13.7 21.2-21.1 6.5-7.6 11.9-16 18.2-24.6 17.3-27.7 25.9-58.2 27.6-90.6 2.3-43.6-6.8-85.3-23.2-125.5-1.8-4.3-3.9-4.8-7.9-3.7-16.5 4.3-33.1 8.4-50.5 12.5zm-771.5 78.6c-1.5 4-3.2 8-4.5 12.1-10.6 33.2-17.5 66.9-12.3 102.1 3.5 23.4 12.5 44.3 28.5 62.1 1.1 1.2 3.3 2.6 4.8 2.3 38.1-6.3 65.6-35.9 72.5-67.1 3.1-13.9 5.7-28 7.9-42.1 2.1-14 3.3-28 5.1-42.9-1.8-19.6-9.2-36.8-22.8-51.2-14.1-14.9-31.6-23.3-51.9-25.8-1.8-0.2-5.1 0.8-5.7 2.2-7.3 15.8-14.2 31.7-21.6 48.3zm829.4 134.4c-10.3 16.7-23.4 31-38.3 44.4 9 6.7 18.2 12.2 29.1 15.6-0.1-1.4-0.1-2.1-0.2-2.7-1.7-10.5 2.8-17.4 13-20.1 3.9-1.1 7.8-2 11.6-3 12.9-3.2 20.3 1.3 23.6 14.3 1.3 5.1 2.6 10.2 4 15.5 19.3-5.3 35-14.9 46.9-31.3 12.9-17.6 19.2-37.5 16.9-59.1-1.6-14.8-5.5-29.3-8.9-43.8-10-42.4-24.9-83.1-41.8-123.1-4.8-11.2-12.4-20-23-26.1-8.4-4.9-17.3-7.7-26.7-7.5 5.1 16.2 10.8 31.8 15 47.9 10 38.1 12.7 76.6 4.7 115.6-4.7 22.5-13.5 43.4-25.9 63.4zm-680.4-860.7c-22.7 43-33.8 88.8-34.6 137.2 25 0 49.4 0 73.9 0 2.1-62.5 24.3-116.2 68.4-160.1 44.2-43.9 98.2-65.5 160.2-67.2 0-24.6 0-48.9 0-73.2-0.8-0.1-1.3-0.2-1.7-0.2-2-0.1-4-0.1-6 0-38.1 1.1-74.7 8.9-109.5 24.1-12.5 5.5-24.3 12.7-37.2 19.1-1.3 0.7-2.7 1.2-3.9 2-36.1 22.5-66.4 51.1-90.4 86.2-6.8 10.1-12.5 21-19.2 32.1zm185.9 700.1c0 2.2 0.1 4.5-0.7 6.5-32.7 0-65.4 0-98.8 0 5.8 21.3 11.4 42.1 16.9 63.7 0.6 2.7 1.1 5.5 2 8.1 4.8 14.1 9.7 28.2 14.8 43 9 18.3 20.7 34.6 36.2 48.9 10.8 10.1 22.5 18.9 36.6 25.6 14.8 7.7 30.5 13.3 47.7 16.4 9.1 1 18.2 1.9 27.3 2.9 0-10.8 0-20.3 0.2-30.6 0-40.2 0-80.5 0-120.9 2.3 0 4 0 6.3 0 0 2.1 0 4.1 0 6 0 35.6 0.1 71.2-0.1 107.8 0 12.2 0 24.5 0 37 2.3 0 3.7 0.2 5.2 0 6-0.6 12-1 17.8-2.1 48.8-9.4 86.7-34.8 113.3-76.9 12.1-19.3 19-40.7 24.1-63.5 5.8-21.7 11.7-43.4 17.7-65.6-1.6 0-2.4 0-3.2 0q-45.8 0-91.5 0.1c-1.2 0-2.3 0.2-3.7-0.5 0.5-2 1-4 2.3-5.9q44 0 88 0c10.4 0 10.4 0 12.7-10.3 3.6-16.2-7.8-30.6-24.6-30.7-14.8-0.1-29.6 0-44.5 0-2.1 0-4.3-0.1-6.4-0.4-13.6-1.7-23-14.7-20.6-28.1 2.2-11.9 12.2-20.1 25-20.1 24.2-0.1 48.3 0 72.5-0.1 15.2-0.1 26.2-10.9 26-25.2-0.2-13.8-11-23.6-26.2-23.6q-89.2 0-178.4 0c-1.7 0-3.5 0-5.7 0 0 20.9 0 40.9 0 61-2.2 0-3.8 0-6 0 0-20.4 0-40.6 0-61-2.5 0-4.3 0-6.1 0q-89.5 0-178.9 0c-1.5 0-3 0-4.5 0-17.1 0.9-27.9 18.5-20.9 34 4.8 10.3 13.4 14.8 24.5 14.8 23.9 0.1 47.7 0 71.5 0.1 11.4 0 20.9 6.5 24.4 16.4 5.7 16-6.2 31.9-24.3 32.1-15.6 0.2-31.3 0-46.9 0.1-13.5 0.1-24 8.9-25.2 22.1-0.5 4.5 1.1 9.2 1.7 13.8 0.5 3.9 2.3 5.3 6.6 5.2 30.1-0.2 60.3-0.1 90.4-0.1 1.7 0 3.3-0.4 5.5 0zm30.9-601.4c13-2 25.9-5.1 38.9-5.9 25-1.5 49.8 0.9 74 7.7 35 9.7 65.9 26.6 92.8 50.9 5 4.6 10.7 5.9 17 3.4 5.7-2.2 9.2-7.8 8.6-14.9-1.1-12.3-1.8-24.9-4.5-37-9.1-39.3-28.9-72.5-60.1-98.2-31.3-25.9-67.7-39.2-108.1-41-16.6-0.8-33 1.4-48.9 5.4-39.1 9.9-71.5 30.8-96.3 62.4-25.1 32-38.3 68.6-38.1 109.6 0 6.4 2.2 11.3 8 13.7 5.8 2.4 11.5 1.8 16.5-3 4.6-4.3 9.5-8.3 14.5-12.1 25.5-19.5 53.8-33.1 85.7-41zm339.9 38.9c5.8 0 11.6 0 18.1 0-2.9-89.9-36.4-165.2-103.1-224.8-55.9-49.8-122-74.6-197.1-76.6 0 25.1 0 49.2 0 73.8 61.8 2.2 115.2 24.4 158.9 68.2 43.6 43.9 65.3 97.5 67.3 159.4 18.6 0 36.8 0 55.9 0zm-289.1 104.9c-5.6 4.1-11.5 8-16.9 12.3-4.7 3.8-9.1 3.8-14.1 0.7-7.8-4.8-15.9-9.2-23.9-13.8 7.1 10.1 14.5 19.7 22.6 28.7 6.4 7.1 16.4 7.3 23.8 1.1 4.5-3.7 8.6-7.8 12.9-11.8 3.4-3.2 7.2-4 11.4-1.5 3.2 2 6.5 4 9.8 5.8 7.9 4.4 16.9 3.6 22.1-3.4 5.3-7.2 9-15.5 13.4-23.3-6.3 2.7-11.7 6-16.7 9.8-4.8 3.6-9.3 3.5-14.2 0.3-3-2-6.3-3.7-9.4-5.6-6.8-4.1-13.5-4.1-20.8 0.7z"/>
	<path class="s1" d="m910.9 1006.7c-15.8 0.1-31.6 0.1-47.8-0.3 8-12.1 16.2-23.8 24.5-35.4 4.9-6.9 9.8-13.6 15.2-21-2.7-1.1-4.5-1.9-6.3-2.7-11.4-5-22.8-9.9-34.2-15.1-6.2-2.9-6.1-3.1-10.3 2.8-13 17.9-26.1 35.7-39 53.6-4.3 5.9-8.1 12.1-12.1 18.1-23.2 0.8-35.7-9.9-40.5-35.4 8.7-11.6 17.2-22.6 25.3-33.9 4.5-6.3 9.6-12.8 11.9-20 4.9-15.2-0.8-27.8-12.8-38.1-19.8-17.1-37.3-36.3-52.9-57.4-2.6-3.5-5.7-6.7-8.6-10-4.6-21.8-9.7-43.4-13.7-65.3-2.3-13.2-2.8-26.7-4.1-40.7 25.2 0 49.6 0 74.7 0 1.1 36.3 9.2 71.1 26.7 104 0.5 0.8 0.7 1 1 1.2 0.1 0.3 0.3 0.6 0.7 1.6 24 44.4 58.8 76.8 103.7 98.1 40.3 19.1 82.7 26 127.1 20.3 23.9-3.1 46.8-9.4 68.6-19.6 33.1-15.3 61-37.2 83.5-65.8 7.8-10.1 14-21.4 20.9-32.1q0 0 0.4-0.3c0.4-0.7 0.6-1.2 0.8-1.6 14.7-26.6 23.4-55 26.4-85.2 0.6-5.8 0.6-11.6 1.3-17.4 0.1-1.3 1.8-3.4 2.8-3.5 23.4-0.1 46.9-0.1 71.5-0.1-0.7 10.5-0.5 20.7-2.3 30.5-4.6 25.2-10 50.2-15.6 75.7-1.6 1.7-2.6 2.9-3.7 4.2-11.3 13.9-21.8 28.6-34.3 41.4-14 14.4-29.2 27.8-45 40.2-34.1 26.8-72.4 45.9-114.2 57.9-21.5 6.1-43.3 10.3-65.6 11.8-22.3 1.5-44.6 1.5-66.7-2.1-12.5-2-24.5-1-33.1 8.8-9 10.1-16.2 21.8-24.2 32.8z"/>
	<path class="s2" d="m957.2 660.2c-31.5 7.8-59.8 21.4-85.3 40.9-5 3.8-9.9 7.8-14.5 12.1-5 4.8-10.7 5.4-16.5 3-5.8-2.4-8-7.3-8-13.7-0.2-41 13-77.6 38.1-109.6 24.8-31.6 57.2-52.5 96.3-62.4 15.9-4 32.3-6.2 48.9-5.4 40.4 1.8 76.8 15.1 108.1 41 31.2 25.7 51 58.9 60.1 98.2 2.7 12.1 3.4 24.7 4.5 37 0.6 7.1-2.9 12.7-8.6 14.9-6.3 2.5-12 1.2-17-3.4-26.9-24.3-57.8-41.2-92.8-50.9-24.2-6.8-49-9.2-74-7.7-13 0.8-25.9 3.9-39.3 6z"/>
	<path class="s3" d="m896.8 1431.1c-15.2-13.7-26.9-30-35.7-48.8 3.3-3.7 6.7-6.7 9.4-10.2 5.3-6.7 4.1-13.6-2.4-19.1-6.4-5.5-12.4-11.4-18.6-17.1q-2.7-2.5-5.3-5c-5.6-20.8-11.2-41.6-17-62.9 33.4 0 66.1 0 99.2 0.5 0.8 2.5 1 4.4 1.6 6.3 3.9 12.1 10.9 21.4 23.8 25.6 2.5 0.7 4.7 1.5 7 1.5 35 0.1 70.1 0 105.5 0.1 2.1-0.5 3.7-1.2 5.5-1.7 13.4-3.8 24.5-17.8 25.2-32 1.2-0.2 2.3-0.4 3.5-0.4q45.7-0.1 91.5-0.1c0.8 0 1.6 0 3.2 0-6 22.2-11.9 43.9-18.3 65.9-2.1 1.6-3.7 2.8-5.2 4.2-6.9 6.3-13.6 13.1-20.9 19.1-22.8 18.6-48.9 31.2-76.9 40.1-8 2.5-16.1 6.1-22.7 11.1-10.2 7.8-19.3 17.2-28.8 25.9-1.6 1.4-3.4 2.6-5.1 3.8q-0.1-53.4-0.1-106.8c0-1.9 0-3.9 0-6-2.3 0-4 0-6.3 0 0 40.4 0 80.7-0.4 121.4-2 1.9-3.7 3.3-5.3 4.7-7.5 7.3-14.9 14.6-22.4 21.9-16.6-2.5-32.3-8.1-47.3-16.3 16.9-17.6 34-34.8 51.5-52.4-2.3-0.6-3.7-1-5.2-1.3-11.8-2.7-23.7-4.9-35.3-8.3-6.1-1.8-9.9-1.5-14.4 3.3-10.7 11.4-22.1 22.1-33.3 33zm260.2-149.7c-3.9 3.7-3.7 6.4 1 8.6 4.6 2.1 9.5 2.2 14-0.1 1.6-0.9 3.7-3.1 3.6-4.7-0.1-1.5-2.4-4.1-3.9-4.3-4.7-0.5-9.4 0-14.7 0.5zm-295.4 9.7c0.8-0.2 1.8-0.2 2.3-0.7 1.7-1.6 4.9-3.8 4.5-5-0.6-2.1-3.1-4.8-5.1-5-4.3-0.5-9-0.4-13 1-4.5 1.5-4.5 6.2-0.1 8.1 3.2 1.3 7 1.1 11.4 1.6z"/>
	<path class="s1" d="m926.1 1260.9c-1.6 0.2-3.2 0.6-4.9 0.6-30.1 0-60.3-0.1-90.4 0.1-4.3 0.1-6.1-1.3-6.6-5.2-0.6-4.6-2.2-9.3-1.7-13.8 1.2-13.2 11.7-22 25.2-22.1 15.6-0.1 31.3 0.1 46.9-0.1 18.1-0.2 30-16.1 24.3-32.1-3.5-9.9-13-16.4-24.4-16.4-23.8-0.1-47.6 0-71.5-0.1-11.1 0-19.7-4.5-24.5-14.8-7-15.5 3.8-33.1 20.9-34 1.5 0 3 0 4.5 0q89.4 0 178.9 0c1.8 0 3.6 0 6.1 0 0 20.4 0 40.6 0 61 2.2 0 3.8 0 6 0 0-20.1 0-40.1 0-61 2.2 0 4 0 5.7 0q89.2 0 178.4 0c15.2 0 26 9.8 26.2 23.6 0.2 14.3-10.8 25.1-26 25.2-24.2 0.1-48.3 0-72.5 0.1-12.8 0-22.8 8.2-25 20.1-2.4 13.4 7 26.4 20.6 28.1 2.1 0.3 4.3 0.4 6.4 0.4 14.9 0 29.7-0.1 44.5 0 16.8 0.1 28.2 14.5 24.6 30.7-2.3 10.3-2.3 10.3-12.7 10.3-29.3 0-58.7 0-88.5-0.4-1.5-4.7-2.1-9.2-3.6-13.3-5.1-14.7-18.5-24.8-32.5-24.7-32.6-0.1-64.7-0.1-96.8-0.1-2.4 0.1-4.8 0.7-7.5 0.9-0.6 0.3-0.9 0.6-1.6 1-3.5 1.1-6.7 1.8-9.5 3.3-12.8 7.1-17.6 19-19 32.7z"/>
	<path class="s1" d="m1297 699c-18.6 0-36.8 0-55.4 0-2-61.9-23.7-115.5-67.3-159.4-43.7-43.8-97.1-66-158.9-68.2 0-24.6 0-48.7 0-73.8 75.1 2 141.2 26.8 197.1 76.6 66.7 59.6 100.2 134.9 103.1 224.8-6.5 0-12.3 0-18.6 0z"/>
	<path class="s1" d="m855 441c12.2-6.3 24-13.5 36.5-19 34.8-15.2 71.4-23 109.5-24.1 2-0.1 4-0.1 6 0 0.4 0 0.9 0.1 1.7 0.2 0 24.3 0 48.6 0 73.2-62 1.7-116 23.3-160.2 67.2-44.1 43.9-66.3 97.6-68.4 160.1-24.5 0-48.9 0-73.9 0 0.8-48.4 11.9-94.2 35.2-137.5 7.4 3.7 14.4 3.1 21.3 0.5 3.9-1.4 7.9-2.8 11.5-4.8 30.9-17 54.4-41.5 72.1-71.6 8-13.5 15-27.7 8.7-44.2z"/>
	<path class="s4" d="m911.4 1006.8c7.5-11.1 14.7-22.8 23.7-32.9 8.6-9.8 20.6-10.8 33.1-8.8 22.1 3.6 44.4 3.6 66.7 2.1 22.3-1.5 44.1-5.7 65.6-11.8 41.8-12 80.1-31.1 114.2-57.9 15.8-12.4 31-25.8 45-40.2 12.5-12.8 23-27.5 34.3-41.4 1.1-1.3 2.1-2.5 3.5-3.9-1.6 9.5-3.5 19.1-5.6 28.6q-15.9 69.4-31.9 138.9c-3.7 15.7-17.7 27.4-33.2 27.5-105 0-210 0-315.4-0.2z"/>
	<path class="s1" d="m1421.8 1421.8c11.8-19.7 20.6-40.6 25.3-63.1 8-39 5.3-77.5-4.7-115.6-4.2-16.1-9.9-31.7-15-47.9 9.4-0.2 18.3 2.6 26.7 7.5 10.6 6.1 18.2 14.9 23 26.1 16.9 40 31.8 80.7 41.8 123.1 3.4 14.5 7.3 29 8.9 43.8 2.3 21.6-4 41.5-17.6 59.3-25.9-0.6-49.3-7.5-71-20.1-6.2-3.6-11.6-8.7-17.4-13.1z"/>
	<path class="s5" d="m693.7 1315.1c-1.7 14-2.9 28-5 42-2.2 14.1-4.8 28.2-7.9 42.1-6.9 31.2-34.4 60.8-72.5 67.1-1.5 0.3-3.7-1.1-4.8-2.3-16-17.8-25-38.7-28.5-62.1-5.2-35.2 1.7-68.9 12.3-102.1 1.3-4.1 3-8.1 5-12.5 11.6-2.9 22.6-4.3 34-3.5 19.5 1.3 36.8 7.7 52.3 19.3 5.2 3.8 10.1 8 15.1 12zm-28.6 40.7c-1.7-7.4-4.5-14.3-10.1-19.6-7.5-7-15.6-7.6-23-0.6-16.9 15.8-22.5 35.9-20.3 58.4 0.8 9.1 4 17.4 10.4 24.3 3.8 4.1 8.5 5.6 13.4 3.1 4.8-2.4 10-5.1 13.6-8.9 14.7-15.8 19.1-34.8 16-56.7z"/>
	<path class="s1" d="m1364.1 1209.2c16.6-4.2 33.2-8.3 49.7-12.6 4-1.1 6.1-0.6 7.9 3.7 16.4 40.2 25.5 81.9 23.2 125.5-1.7 32.4-10.3 62.9-28.2 90.8-4-2.9-7.8-5.9-11-9.4-12.9-14.1-22.3-30.3-26.5-49-1.9-8.5-2.5-17.4-3.2-26.1-1.5-17.7-2.5-35.5-4-53.2-1-11.9-2.3-23.7-3.7-35.6-1.3-11.4-2.8-22.7-4.2-34.1zm51 4.5c-1.3-3.4-2.3-6.9-4.2-9.9-0.9-1.4-3.9-2.6-5.3-2.1-1.6 0.5-3.3 3.2-3.2 4.9 0.1 3.5 0.7 7.4 2.4 10.3 1.3 2.3 4.6 3.5 7 5.1 1.1-2.5 2.2-5 3.3-8.3z"/>
	<path class="s4" d="m1363.7 1209.2c1.8 11.4 3.3 22.7 4.6 34.1 1.4 11.9 2.7 23.7 3.7 35.6 1.5 17.7 2.5 35.5 4 53.2 0.7 8.7 1.3 17.6 3.2 26.1 4.2 18.7 13.6 34.9 26.5 49 3.2 3.5 7 6.5 10.8 9.7-5.5 8.1-10.9 16.5-17.4 24.1-6.4 7.4-13.9 13.8-21.2 21.1-10-8.8-18.2-19.6-22.6-32.6-2.8-8.4-4.6-17.4-5-26.2-2.2-48.2-7.8-95.9-20.5-142.5-6.2-22.8 8-46.4 30.6-50.9 1-0.1 1.9-0.5 3.3-0.7z"/>
	<path class="s4" d="m1015.2 1438.4c1.8-1.7 3.6-2.9 5.2-4.3 9.5-8.7 18.6-18.1 28.8-25.9 6.6-5 14.7-8.6 22.7-11.1 28-8.9 54.1-21.5 76.9-40.1 7.3-6 14-12.8 20.9-19.1 1.5-1.4 3.1-2.6 4.9-3.9-4.2 22.2-11.1 43.6-23.2 62.9-26.6 42.1-64.5 67.5-113.3 76.9-5.8 1.1-11.8 1.5-17.8 2.1-1.5 0.2-2.9 0-5.2 0 0-12.5 0-24.8 0.1-37.5z"/>
	<path class="s1" d="m583.3 1291c-4.6 18-10.3 35.9-13.6 54.1-5.8 32.5-4.4 64.8 10.3 95.2 4.1 8.5 10 16.1 15 24.1 0.6 0.9 1.3 1.8 2.1 2.8-36.5 3.6-81.9-21.6-92.9-70 6.1-13.3 12.1-25.9 17.8-38.7 8-18 15.8-36.1 31.3-49.3 9-7.7 18.2-15 30-18.2z"/>
	<path class="s6" d="m1212.1 813.5c-6.6 10.8-12.8 22.1-20.6 32.2-22.5 28.6-50.4 50.5-83.5 65.8-21.8 10.2-44.7 16.5-68.6 19.6-44.4 5.7-86.8-1.2-127.1-20.3-44.9-21.3-79.7-53.7-103.7-97.9 0.8 0.1 1.8 0.4 2.3 1 23.2 28.4 50.9 51 83.6 67.6 26.1 13.2 53.6 21.8 82.6 25.5 56.8 7.1 110.3-3.1 160.3-31.1 27.4-15.3 51.1-35.3 71.3-59.5 0.9-1.1 2-2 3.4-2.9z"/>
	<path class="s7" d="m854.6 441.1c6.7 16.4-0.3 30.6-8.3 44.1-17.7 30.1-41.2 54.6-72.1 71.6-3.6 2-7.6 3.4-11.5 4.8-6.9 2.6-13.9 3.2-21-0.8 5.8-10.5 11.5-21.4 18.3-31.5 24-35.1 54.3-63.7 90.4-86.2 1.2-0.8 2.6-1.3 4.2-2z"/>
	<path class="s4" d="m723.3 812.3c2.9 2.9 6 6.1 8.6 9.6 15.6 21.1 33.1 40.3 52.9 57.4 12 10.3 17.7 22.9 12.8 38.1-2.3 7.2-7.4 13.7-11.9 20-8.1 11.3-16.6 22.3-25.3 33.5q-5-18.6-9.4-37.4c-9.3-40.2-18.5-80.5-27.7-121.2z"/>
	<path class="s4" d="m583.5 1290.8c-12 3.4-21.2 10.7-30.2 18.4-15.5 13.2-23.3 31.3-31.3 49.3-5.7 12.8-11.7 25.4-17.8 38.3-5.3-16.1-4.7-32.7 1.5-48.1 9.3-23.5 19.7-46.8 31.4-69.2 13.1-25 35.3-38.2 62.9-42.3 2-0.3 4.2-0.1 5.9-0.1-7.4 17.9-14.8 35.7-22.4 53.7z"/>
	<path class="s4" d="m801.4 1006.8c3.5-6.1 7.3-12.3 11.6-18.2 12.9-17.9 26-35.7 39-53.6 4.2-5.9 4.1-5.7 10.3-2.8 11.4 5.2 22.8 10.1 34.2 15.1 1.8 0.8 3.6 1.6 6.3 2.7-5.4 7.4-10.3 14.1-15.2 21-8.3 11.6-16.5 23.3-24.9 35.3-20.4 0.5-40.6 0.6-61.3 0.5z"/>
	<path class="s4" d="m693.8 1314.7c-5.1-3.6-10-7.8-15.2-11.6-15.5-11.6-32.8-18-52.3-19.3-11.4-0.8-22.4 0.6-33.8 3.2 6.7-15.9 13.6-31.8 20.9-47.6 0.6-1.4 3.9-2.4 5.7-2.2 20.3 2.5 37.8 10.9 51.9 25.8 13.6 14.4 21 31.6 22.8 51.7z"/>
	<path class="s4" d="m1421.5 1422c6.1 4.2 11.5 9.3 17.7 12.9 21.7 12.6 45.1 19.5 70.7 20.3-10.9 16-26.6 25.6-45.9 30.9-1.4-5.3-2.7-10.4-4-15.5-3.3-13-10.7-17.5-23.6-14.3-3.8 1-7.7 1.9-11.6 3-10.2 2.7-14.7 9.6-13 20.1 0.1 0.6 0.1 1.3 0.2 2.7-10.9-3.4-20.1-8.9-29.1-15.6 14.9-13.4 28-27.7 38.6-44.5z"/>
	<path class="s4" d="m897 1431.4c11-11.2 22.4-21.9 33.1-33.3 4.5-4.8 8.3-5.1 14.4-3.3 11.6 3.4 23.5 5.6 35.3 8.3 1.5 0.3 2.9 0.7 5.2 1.3-17.5 17.6-34.6 34.8-51.8 52.2-13.6-6-25.3-14.8-36.2-25.2z"/>
	<path class="s8" d="m1008.7 803.6c7-4.5 13.7-4.5 20.5-0.4 3.1 1.9 6.4 3.6 9.4 5.6 4.9 3.2 9.4 3.3 14.2-0.3 5-3.8 10.4-7.1 16.7-9.8-4.4 7.8-8.1 16.1-13.4 23.3-5.2 7-14.2 7.8-22.1 3.4-3.3-1.8-6.6-3.8-9.8-5.8-4.2-2.5-8-1.7-11.4 1.5-4.3 4-8.4 8.1-12.9 11.8-7.4 6.2-17.4 6-23.8-1.1-8.1-9-15.5-18.6-22.6-28.7 8 4.6 16.1 9 23.9 13.8 5 3.1 9.4 3.1 14.1-0.7 5.4-4.3 11.3-8.2 17.2-12.6z"/>
	<path class="s9" d="m926.4 1261.2c1.1-14 5.9-25.9 18.7-33 2.8-1.5 6-2.2 9.5-2.8 0.4 25.2 0.4 49.9 0.1 74.7-1.3 0-2.2 0-3.1 0-12.7-3.9-19.7-13.2-23.6-25.3-0.6-1.9-0.8-3.8-1.2-6.2 0-2.6-0.1-4.9-0.4-7.4z"/>
	<path class="s10" d="m1060.9 1223.1c13.6-0.1 27 10 32.1 24.7 1.5 4.1 2.1 8.6 3.2 13.3-0.4 2.3-0.9 4.3-1.3 6.7-0.6 14.7-11.7 28.7-25.1 32.5-1.8 0.5-3.4 1.2-5.8 1.4-3.3-0.4-5.9-0.6-8.7-1-1.3-0.7-2.3-1.2-2.9-1.8 1-0.1 1.7-0.1 2.9 0 5.8 0.5 10.5 0.2 13.6-5.5 10.2-19.3 10.8-38.6 1.6-58.5-3.2-7.1-8-10.3-16-8.7-0.9 0-1.3 0-1.7-0.4 0.3-0.8 0.5-1.3 1.1-1.8 2.6-0.3 4.8-0.6 7-0.9z"/>
	<path class="s4" d="m844.1 1331.3c1.8 1.3 3.6 2.9 5.4 4.6 6.2 5.7 12.2 11.6 18.6 17.1 6.5 5.5 7.7 12.4 2.4 19.1-2.7 3.5-6.1 6.5-9.5 9.8-5.2-13.9-10.1-28-14.9-42.1-0.9-2.6-1.4-5.4-2-8.5z"/>
	<path class="s4" d="m981.1 1473.4c7.2-7.6 14.6-14.9 22.1-22.2 1.6-1.4 3.3-2.8 5.2-4.2 0.3 9.3 0.3 18.8 0.3 29.6-9.1-1-18.2-1.9-27.6-3.2z"/>
	<path class="s6" d="m1213.2 811.7c0.2 0.4 0 0.9-0.4 1.5-0.1-0.4 0-0.9 0.4-1.5z"/>
	<path class="s6" d="m807.9 810.9q-0.4 0-0.8-0.7 0.4-0.1 0.8 0.7z"/>
	<path class="s0" d="m1157.3 1281.2c5-0.3 9.7-0.8 14.4-0.3 1.5 0.2 3.8 2.8 3.9 4.3 0.1 1.6-2 3.8-3.6 4.7-4.5 2.3-9.4 2.2-14 0.1-4.7-2.2-4.9-4.9-0.7-8.8z"/>
	<path class="s0" d="m861.2 1291.1c-4-0.5-7.8-0.3-11-1.6-4.4-1.9-4.4-6.6 0.1-8.1 4-1.4 8.7-1.5 13-1 2 0.2 4.5 2.9 5.1 5 0.4 1.2-2.8 3.4-4.5 5-0.5 0.5-1.5 0.5-2.7 0.7z"/>
	<path class="s2" d="m1055.5 1301c2.6 0.1 5.2 0.3 8.1 0.7-34.7 0.2-69.8 0.3-104.8 0.2-2.3 0-4.5-0.8-7-1.5 0.7-0.3 1.6-0.3 3.2-0.1 7.8 0.3 14.9 0.5 22.5 0.7 8.8 0 17.1-0.1 26 0 17.6 0 34.8 0 52 0z"/>
	<path class="s11" d="m977 1300.9c-7.1-0.1-14.2-0.3-21.6-0.6-0.4-25-0.4-49.7-0.4-75 0.3-0.8 0.6-1.1 1.7-1.4 7.3 0.2 13.8 0.2 20.3 0.8 0 25.7 0 50.9 0 76.2z"/>
	<path class="s2" d="m977 1224.2c-6.5-0.1-13-0.1-20.1-0.2 2-0.3 4.4-0.9 6.8-1 32.1 0 64.2 0 96.8 0.1-1.8 0.3-4 0.6-7.1 0.9-17.4 0.1-33.9 0.1-50.9 0.1-8.8 0-17.2 0.1-25.5 0.1z"/>
	<path class="s0" d="m665.1 1356.2c3.1 21.5-1.3 40.5-16 56.3-3.6 3.8-8.8 6.5-13.6 8.9-4.9 2.5-9.6 1-13.4-3.1-6.4-6.9-9.6-15.2-10.4-24.3-2.2-22.5 3.4-42.6 20.3-58.4 7.4-7 15.5-6.4 23 0.6 5.6 5.3 8.4 12.2 10.1 20z"/>
	<path class="s0" d="m1415.2 1214.1c-1.2 2.9-2.3 5.4-3.4 7.9-2.4-1.6-5.7-2.8-7-5.1-1.7-2.9-2.3-6.8-2.4-10.3-0.1-1.7 1.6-4.4 3.2-4.9 1.4-0.5 4.4 0.7 5.3 2.1 1.9 3 2.9 6.5 4.3 10.3z"/>
	<path class="s12" d="m1003 1224.2c16.5-0.1 33-0.1 50-0.2 0.3 0.5 0.1 1-0.3 1.8-0.2 0.4-0.5 0.4-0.8 0.4-1 0.3-1.7 0.5-2.5 0.8-0.5 0.1-0.8 0.2-1.4 0.3-0.7 0.2-1 0.5-1.6 0.8-0.6 0.3-1 0.5-1.7 0.9-2.5 1.7-4.8 3.3-7.3 5.1-1.9 2.1-3.5 4-5.4 6.2-1.5 2.8-2.7 5.3-4.1 8.2-3.9 9.7-3.9 19 0.1 28.7 1.5 2.9 3 5.5 4.6 8.4 1.7 2 3.4 3.8 5.2 5.8 2.5 1.8 4.8 3.3 7.3 5 1.3 0.7 2.5 1.2 3.9 1.8 1.2 0.4 2.1 0.6 3 0.8 0 0 0-0.1 0-0.1 1 0.6 2 1.1 3.3 1.8-17 0.3-34.2 0.3-51.8-0.2-0.5-25.8-0.5-51-0.5-76.3z"/>
	<path class="s13" d="m1054.8 1226.2c7.7-1.6 12.5 1.6 15.7 8.7 9.2 19.9 8.6 39.2-1.6 58.5-3.1 5.7-7.8 6-13.5 5.1 0-0.9 0.2-1.5 0.6-2 14.5-17.7 17-36.8 6.9-57.3-2.2-4.6-5.4-8.7-8.1-13z"/>
	<path class="s4" d="m1054.5 1226.2c3 4.3 6.2 8.4 8.4 13 10.1 20.5 7.6 39.6-6.9 57.3-0.4 0.5-0.6 1.1-1.1 2-0.8 0.3-1.5 0.3-2.5 0.4-0.4 0-0.4 0.1-0.6-0.2-1.2-0.4-2.2-0.6-3.1-0.7-1.1-0.4-2.3-0.9-3.3-1.7 1.1-1 2.2-1.5 3-2.3 11.8-10.1 15.3-23.5 13.3-38.2-1.5-11-6.4-20.8-16.6-26.9 0.3-0.3 0.7-0.5 1.6-0.9 0.9-0.3 1.2-0.6 1.6-0.8 0.3 0 0.6-0.1 1.4-0.2 1.3-0.2 1.9-0.5 2.5-0.8 0 0 0.3 0 0.4 0 0.6 0 1 0 1.9 0z"/>
	<path class="s14" d="m1002.5 1224.1c0.5 25.4 0.5 50.6 0.5 76.3-8.4 0.5-16.7 0.6-25.5 0.6-0.5-25.4-0.5-50.6-0.5-76.3 8.3-0.5 16.7-0.6 25.5-0.6z"/>
	<path class="s4" d="m1044.7 1229c10.6 6 15.5 15.8 17 26.8 2 14.7-1.5 28.1-13.3 38.2-0.8 0.8-1.9 1.3-3.2 2.1-2.6-1.4-4.9-2.9-7-4.7 9-4.7 13.7-12 15.9-21.4 1.8-7.9 0.7-15.4-2.6-22.3-2.8-5.9-6.3-12.1-13.8-13.8 2.2-1.6 4.5-3.2 7-4.9z"/>
	<path class="s5" d="m1037.4 1234.1c7.8 1.5 11.3 7.7 14.1 13.6 3.3 6.9 4.4 14.4 2.6 22.3-2.2 9.4-6.9 16.7-16.1 21.1-2-1.7-3.7-3.5-5.1-5.7 3.8-3.8 8.1-6.7 10.7-10.7 7.8-11.9 1.6-29.8-11.3-34.7 1.6-1.9 3.2-3.8 5.1-5.9z"/>
	<path class="s3" d="m1032 1240.3c13.2 4.6 19.4 22.5 11.6 34.4-2.6 4-6.9 6.9-10.8 10.4-1.8-2.4-3.3-5-4.5-7.8 3-1.9 6.1-3 8-5.2 4.3-5 4.1-11.1 1.5-16.8-1.8-3.9-4.7-7.3-9.8-7.1 1.3-2.6 2.5-5.1 4-7.9z"/>
	<path class="s8" d="m1027.9 1248.5c5.2-0.5 8.1 2.9 9.9 6.8 2.6 5.7 2.8 11.8-1.5 16.8-1.9 2.2-5 3.3-7.9 4.8-4.4-9.4-4.4-18.7-0.5-28.4z"/>
	<path class="s13" d="m1049 1298.2c0.6-0.1 1.6 0.1 2.8 0.5-0.7 0.1-1.6-0.1-2.8-0.5z"/>
	<path class="s13" d="m1051.9 1226.2q-0.4 0.4-1.9 0.8 0.4-0.4 1.9-0.8z"/>
	<path class="s13" d="m1048 1227.3q-0.1 0.2-1 0.7 0-0.3 1-0.7z"/>
</svg>